<svg transform="scale(1)" id="_0586_Approval_5" xmlns="http://www.w3.org/2000/svg" viewBox="0 0 500 500" class="show_show__wrapper__graphic__5Waiy "><title>React</title><defs><style>.cls-1{fill:none;opacity:.45;}.cls-2,.cls-3,.cls-4{fill:#fff;}.cls-5{fill:#a5a5a5;}.cls-6{fill:#e6e6e6;}.cls-3{opacity:.37;}.cls-7{opacity:.58;}.cls-7,.cls-8,.cls-9{fill:#0d6efd;}.cls-4{opacity:.2;}.cls-10{fill:#24285b;}.cls-11{fill:#000001;opacity:.08;}.cls-8{opacity:.73;}.cls-12{fill:#ffd200;}</style></defs><g id="papers"><polygon class="cls-5" points="110.07 346.26 279.42 80.42 480.65 172.25 318.75 454.54 110.07 346.26"></polygon><polygon class="cls-6" points="96.54 309.2 265.89 43.36 467.12 135.19 305.22 417.48 96.54 309.2"></polygon><circle class="cls-10" cx="268.7" cy="325.64" r="36.77"></circle><polygon class="cls-2" points="256.25 340.79 251.52 316.31 255.45 315.56 259.18 334.91 288.47 320.6 290.23 324.19 256.25 340.79"></polygon><rect class="cls-5" x="344.97" y="60.4" width="2" height="132.75" transform="translate(92.51 394.22) rotate(-66.66)"></rect><rect class="cls-5" x="321.59" y="94.32" width="2" height="132.75" transform="translate(47.24 393.23) rotate(-66.66)"></rect><rect class="cls-5" x="298.19" y="126.68" width="2" height="132.75" transform="translate(3.41 391.29) rotate(-66.66)"></rect><rect class="cls-5" x="274.09" y="168.8" width="2" height="132.75" transform="translate(-49.83 394.6) rotate(-66.66)"></rect><path class="cls-11" d="m224.51,178.21l28.25,19.61c8.62,5.98,10.36,18.02,3.79,26.2l-54.61,67.98c-7.7,9.59-21.55,11.51-31.58,4.39l-45.19-32.13,65.96-103.55,33.37,17.51Z"></path><polygon class="cls-11" points="316.39 255.08 370.52 176.1 429.07 201.85 381.71 284.11 316.39 255.08"></polygon><polygon class="cls-9" points="314.35 233.51 368.48 154.53 452.73 189.03 402.48 272.68 314.35 233.51"></polygon><polygon class="cls-2" points="389.96 173.89 403.22 154.53 423.88 162.98 411.56 183.49 389.96 173.89"></polygon><rect class="cls-3" x="392.18" y="163.54" width="2" height="63.11" transform="translate(58.29 478.82) rotate(-66.66)"></rect><rect class="cls-3" x="383.89" y="178.9" width="2" height="63.11" transform="translate(39.18 480.48) rotate(-66.66)"></rect><rect class="cls-3" x="373.94" y="195.24" width="2" height="63.11" transform="translate(18.17 481.22) rotate(-66.66)"></rect></g><g id="approval"><path class="cls-10" d="m144.74,185.63l19.81-26.72L62.75,71.53c-11.58-9.94-29.15-7.96-38.23,4.29h0c-9.08,12.26-5.86,29.65,7.01,37.83l113.21,71.98Z"></path><rect class="cls-10" x="99.41" y="125.64" width="123.58" height="102.99" rx="24.95" ry="24.95" transform="translate(399.5 153.11) rotate(126.55)"></rect><rect class="cls-4" x="104.6" y="135.93" width="123.58" height="90.1" rx="24.95" ry="24.95" transform="translate(410.85 155.07) rotate(126.55)"></rect><rect class="cls-12" x="116.78" y="140.14" width="123.58" height="99.73" rx="24.95" ry="24.95" transform="translate(437.54 159.69) rotate(126.55)"></rect><path class="cls-2" d="m179.07,225.42c-2.44,0-4.91-.25-7.38-.77-9.43-1.97-17.54-7.49-22.81-15.56-5.28-8.06-7.1-17.7-5.13-27.13,4.06-19.47,23.22-32.02,42.69-27.95,19.47,4.06,32.01,23.22,27.95,42.69h0c-3.55,17-18.59,28.71-35.31,28.71Zm-.02-70.17c-15.79,0-30,11.06-33.35,27.12-1.86,8.91-.14,18.01,4.85,25.63,4.99,7.62,12.64,12.83,21.55,14.69,18.39,3.84,36.48-8,40.32-26.4h0c3.84-18.39-8-36.48-26.4-40.32-2.34-.49-4.67-.72-6.97-.72Z"></path><polygon class="cls-2" points="173.22 205.57 161.35 186.34 163.06 185.29 173.55 202.3 195.66 178.77 197.11 180.14 173.22 205.57"></polygon><rect class="cls-5" x="169.76" y="84.63" width="14.65" height="2" transform="translate(-4.01 162.4) rotate(-48.78)"></rect><rect class="cls-5" x="145.24" y="78.83" width="2" height="14.65" transform="translate(-12.17 147.1) rotate(-51.55)"></rect><rect class="cls-5" x="161.61" y="73.09" width="2" height="14.64" transform="translate(-5.46 12.15) rotate(-4.21)"></rect><circle class="cls-4" cx="48.05" cy="83.84" r="10.72"></circle></g><g id="plant"><g class="cls-1"><ellipse class="cls-6" cx="104.1" cy="443.55" rx="54.81" ry="13.1"></ellipse></g><g id="plant-2"><path class="cls-7" d="m93.72,409.49s-25.3-6.8-30.9-30.3c0,0,39.13-8.08,40.41,32.34l-9.51-2.04Z"></path><path class="cls-8" d="m96.81,406.97s-17.78-27.84-2.34-54.01c0,0,29.86,18.79,16.77,54.01h-14.43Z"></path><path class="cls-9" d="m101.36,406.97s9.21-29.52,37.39-35.22c0,0,5.37,19.12-18.11,35.22h-19.27Z"></path><polygon class="cls-10" points="83.03 406.38 88.3 441.42 120.57 441.42 125.18 406.38 83.03 406.38"></polygon></g></g></svg>