<svg transform="scale(1)" id="_0248_checklist_1" xmlns="http://www.w3.org/2000/svg" viewBox="0 0 500 500" class="show_show__wrapper__graphic__5Waiy "><title>React</title><defs><style>.cls-1{fill:#fff;}.cls-2{fill:#f4a28c;}.cls-3{fill:#a5a5a5;}.cls-4{opacity:.21;}.cls-4,.cls-5{fill:none;}.cls-6{fill:#24285b;}.cls-7{fill:#000001;}.cls-8{fill:#ffd200;}.cls-5{opacity:.1;}.cls-9{fill:#0d6efd;}</style></defs><g id="task"><path class="cls-2" d="m92.75,223.45s16.74-78.78,58.87-78.78,64.54,123.83-37.94,137.3l-20.93-58.53Z"></path><g class="cls-5"><path class="cls-7" d="m92.75,223.45s16.74-78.78,58.87-78.78,64.54,123.83-37.94,137.3l-20.93-58.53Z"></path></g><rect class="cls-6" x="128.12" y="59.75" width="262.12" height="345.18"></rect><rect class="cls-1" x="153.49" y="79.48" width="210.45" height="278.09"></rect><rect class="cls-8" x="203.28" y="40.21" width="114.62" height="48.67"></rect><g class="cls-4"><rect class="cls-3" x="247.75" y="204.22" width="51.99" height="11.46"></rect></g><g class="cls-4"><rect class="cls-3" x="247.75" y="227" width="82.36" height="11.46"></rect></g><g class="cls-4"><rect class="cls-3" x="247.75" y="277.93" width="51.99" height="11.46"></rect></g><g class="cls-4"><rect class="cls-3" x="247.75" y="300.71" width="51.99" height="11.46"></rect></g><rect class="cls-9" x="180.26" y="124.11" width="46.98" height="46.98"></rect><rect class="cls-9" x="180.26" y="197.39" width="46.98" height="46.98"></rect><rect class="cls-9" x="180.26" y="270.67" width="46.98" height="46.98"></rect><path class="cls-1" d="m201.6,158.02s-.05,0-.07,0c-.77-.02-1.48-.41-1.92-1.05l-5.53-8.08c-.75-1.1-.47-2.59.63-3.35,1.1-.75,2.59-.47,3.34.63l3.66,5.34,9.45-12.26c.81-1.05,2.32-1.25,3.38-.44,1.05.81,1.25,2.32.44,3.38l-11.48,14.88c-.46.59-1.16.94-1.91.94Z"></path><path class="cls-1" d="m201.6,231.18s-.05,0-.07,0c-.77-.02-1.48-.41-1.92-1.05l-5.53-8.08c-.75-1.1-.47-2.59.63-3.35,1.1-.75,2.59-.47,3.34.63l3.66,5.34,9.45-12.26c.81-1.05,2.32-1.25,3.38-.44,1.05.81,1.25,2.32.44,3.38l-11.48,14.88c-.46.59-1.16.94-1.91.94Z"></path><g class="cls-5"><path class="cls-7" d="m260.18,223.21l-11.14,8.13,22.5,6.68,26.22,1.72s3.54,24.64,18.85,44.27c16.13,20.67,23.51,46.84,21.63,72.99h0c-.02.32.41.42.54.13l47.42.46-18.84-145.84-107.18,11.47Z"></path></g><path class="cls-1" d="m201.6,304.9s-.05,0-.07,0c-.77-.02-1.48-.41-1.92-1.05l-5.53-8.08c-.75-1.1-.47-2.59.63-3.35,1.1-.75,2.59-.47,3.34.63l3.66,5.34,9.45-12.26c.81-1.05,2.32-1.25,3.38-.44,1.05.81,1.25,2.32.44,3.38l-11.48,14.88c-.46.59-1.16.94-1.91.94Z"></path><path class="cls-2" d="m125.75,194.2s32.52-33.26,46.56-30.3c11.59,2.44,11.6,25.5-13.65,44.71-10.36,7.88-16.89,19.68-17.76,32.67-.72,10.74-4.26,23.5-15.16,33.15-22.91,20.29-39.91,2.61-37.69-24.77,2.22-27.38,3.7-35.51,37.69-55.46Z"></path><polygon class="cls-9" points="138.4 270.05 126.18 439.23 25.9 419.99 76.32 251.24 138.4 270.05"></polygon><g class="cls-4"><rect class="cls-3" x="247.75" y="129.28" width="51.99" height="11.46"></rect></g><g class="cls-4"><rect class="cls-3" x="247.75" y="152.06" width="82.36" height="11.46"></rect></g><g class="cls-5"><polygon class="cls-7" points="87.03 431.72 108.76 261.07 138.4 270.05 126.18 439.23 87.03 431.72"></polygon></g></g><g id="pen"><polygon class="cls-6" points="266.39 208.53 240.39 219.95 267.53 227.29 266.39 208.53"></polygon><path class="cls-2" d="m387.66,213.4s-15.59-31.92-58.03-31.5c-33.26.33-25.55,19.86-10.03,25.47,15.52,5.62,45.4,5.69,33.24,30.29-10.73,21.68-25.33-21.73-41.71-26.98-16.38-5.25-21.92,13.57-6.41,31.43s34.25,50.51,62.49,42.4c28.24-8.11,34.33-40.53,20.45-71.12Z"></path><rect class="cls-9" x="339.53" y="130.81" width="18.8" height="164.23" transform="translate(540.26 -148.29) rotate(86.52)"></rect><polygon class="cls-9" points="350.92 285.16 379.75 459.79 474.1 428.59 400.35 257.4 350.92 285.16"></polygon><g class="cls-5"><polygon class="cls-7" points="350.92 285.16 373.8 272.31 421.49 445.99 379.75 459.79 350.92 285.16"></polygon></g></g></svg>