<svg width="371" height="316" viewBox="0 0 371 316" fill="none" xmlns="http://www.w3.org/2000/svg">
<path d="M293.39 238.65L293.35 261.76C293.33 272.23 264.13 280.68 228.12 280.62C192.11 280.56 162.94 272.02 162.96 261.54L163 238.43L293.39 238.65Z" fill="#FFD200"/>
<path d="M293.35 266.5L293.31 289.61C293.29 300.08 264.09 308.53 228.08 308.47C192.07 308.41 162.9 299.87 162.92 289.39L162.96 266.28L293.35 266.5Z" fill="#FFD200"/>
<path opacity="0.08" d="M293.35 266.5L293.31 289.61C293.29 300.08 264.09 308.53 228.08 308.47C192.07 308.41 162.9 299.87 162.92 289.39L162.96 266.28L293.35 266.5Z" fill="#000001"/>
<path d="M292.107 265.757C292.125 255.379 263.222 246.916 227.55 246.854C191.878 246.792 162.945 255.154 162.927 265.531C162.909 275.909 191.812 284.372 227.484 284.434C263.156 284.496 292.089 276.134 292.107 265.757Z" fill="#FFD200"/>
<path opacity="0.08" d="M293.39 238.65L293.35 261.76C293.33 272.23 264.13 280.68 228.12 280.62C192.11 280.56 162.94 272.02 162.96 261.54L163 238.43L293.39 238.65Z" fill="#000001"/>
<path d="M288.7 211.02L288.66 234.13C288.64 244.6 259.44 253.05 223.43 252.99C187.42 252.93 158.25 244.39 158.27 233.91L158.31 210.8L288.7 211.02Z" fill="#FFD200"/>
<path d="M293.49 183.17L293.45 206.28C293.43 216.75 264.23 225.2 228.22 225.14C192.21 225.08 163.04 216.54 163.06 206.06L163.1 182.95L293.49 183.17Z" fill="#FFD200"/>
<path d="M292.167 238.159C292.185 227.781 263.282 219.318 227.61 219.256C191.938 219.194 163.005 227.556 162.987 237.933C162.969 248.311 191.872 256.774 227.544 256.836C263.217 256.898 292.149 248.536 292.167 238.159Z" fill="#FFD200"/>
<path opacity="0.08" d="M288.7 211.02L288.66 234.13C288.64 244.6 259.44 253.05 223.43 252.99C187.42 252.93 158.25 244.39 158.27 233.91L158.31 210.8L288.7 211.02Z" fill="#000001"/>
<path d="M287.509 210.791C287.527 200.413 258.624 191.95 222.952 191.888C187.28 191.826 158.347 200.188 158.329 210.565C158.311 220.943 187.214 229.406 222.886 229.468C258.558 229.53 287.491 221.168 287.509 210.791Z" fill="#FFD200"/>
<path opacity="0.08" d="M293.49 183.17L293.45 206.28C293.43 216.75 264.23 225.2 228.22 225.14C192.21 225.08 163.04 216.54 163.06 206.06L163.1 182.95L293.49 183.17Z" fill="#000001"/>
<path d="M293.498 183.194C293.517 172.816 264.331 164.353 228.311 164.29C192.291 164.227 163.077 172.589 163.059 182.966C163.041 193.344 192.226 201.807 228.246 201.87C264.266 201.933 293.48 193.571 293.498 183.194Z" fill="#FFD200"/>
<path d="M174.039 146.47L174.079 172.34C174.099 184.06 206.789 193.51 247.089 193.45C287.389 193.38 320.049 183.82 320.029 172.1L319.989 146.23L174.039 146.48V146.47Z" fill="#FFD200"/>
<path d="M168.679 115.3L168.719 141.17C168.739 152.89 201.429 162.34 241.729 162.28C282.029 162.21 314.689 152.65 314.669 140.93L314.629 115.06L168.679 115.31V115.3Z" fill="#FFD200"/>
<path opacity="0.08" d="M174.039 146.47L174.079 172.34C174.099 184.06 206.789 193.51 247.089 193.45C287.389 193.38 320.049 183.82 320.029 172.1L319.989 146.23L174.039 146.48V146.47Z" fill="#000001"/>
<path d="M247.737 167.067C287.667 166.997 320.02 157.525 320 145.91C319.98 134.296 287.594 124.937 247.664 125.007C207.734 125.076 175.38 134.548 175.4 146.163C175.421 157.777 207.807 167.136 247.737 167.067Z" fill="#FFD200"/>
<path opacity="0.08" d="M168.679 115.3L168.719 141.17C168.739 152.89 201.429 162.34 241.729 162.28C282.029 162.21 314.689 152.65 314.669 140.93L314.629 115.06L168.679 115.31V115.3Z" fill="#000001"/>
<path d="M241.733 136.187C282.05 136.117 314.717 126.645 314.697 115.03C314.676 103.416 281.977 94.0571 241.66 94.1275C201.343 94.1978 168.677 103.67 168.697 115.285C168.717 126.899 201.417 136.258 241.733 136.187Z" fill="#FFD200"/>
<path d="M151.25 232.02L151.21 257.89C151.19 269.61 118.5 279.06 78.1998 279C37.8998 278.93 5.23977 269.37 5.25977 257.65L5.29977 231.78L151.25 232.03V232.02Z" fill="#FFD200"/>
<path d="M151.19 263.2L151.15 289.07C151.13 300.79 118.44 310.24 78.1402 310.18C37.8402 310.11 5.1802 300.55 5.2002 288.83L5.2402 262.96L151.19 263.21V263.2Z" fill="#FFD200"/>
<path opacity="0.08" d="M151.19 263.2L151.15 289.07C151.13 300.79 118.44 310.24 78.1402 310.18C37.8402 310.11 5.1802 300.55 5.2002 288.83L5.2402 262.96L151.19 263.21V263.2Z" fill="#000001"/>
<path d="M149.805 262.364C149.826 250.749 117.472 241.278 77.5422 241.208C37.6121 241.138 5.22592 250.497 5.20565 262.112C5.18538 273.726 37.5387 283.198 77.4688 283.268C117.399 283.337 149.785 273.979 149.805 262.364Z" fill="#FFD200"/>
<path opacity="0.08" d="M151.25 232.02L151.21 257.89C151.19 269.61 118.5 279.06 78.1998 279C37.8998 278.93 5.23977 269.37 5.25977 257.65L5.29977 231.78L151.25 232.03V232.02Z" fill="#000001"/>
<path d="M145.99 201.09L145.95 226.96C145.93 238.68 113.24 248.13 72.94 248.07C32.64 248 -0.0199908 238.44 9.18064e-06 226.72L0.0400082 200.85L145.99 201.1V201.09Z" fill="#FFD200"/>
<path d="M151.35 169.92L151.31 195.79C151.29 207.51 118.6 216.96 78.2999 216.9C37.9999 216.83 5.33987 207.27 5.35987 195.55L5.39987 169.68L151.35 169.93V169.92Z" fill="#FFD200"/>
<path d="M149.855 231.47C149.876 219.856 117.522 210.384 77.5921 210.314C37.6619 210.244 5.27573 219.603 5.25545 231.218C5.23518 242.832 37.5885 252.304 77.5187 252.374C117.449 252.444 149.835 243.085 149.855 231.47Z" fill="#FFD200"/>
<path opacity="0.08" d="M145.99 201.09L145.95 226.96C145.93 238.68 113.24 248.13 72.94 248.07C32.64 248 -0.0199908 238.44 9.18064e-06 226.72L0.0400082 200.85L145.99 201.1V201.09Z" fill="#000001"/>
<path d="M144.646 200.827C144.667 189.212 112.313 179.74 72.383 179.671C32.4529 179.601 0.0667411 188.96 0.0464699 200.574C0.0261987 212.189 32.3795 221.661 72.3096 221.73C112.24 221.8 144.626 212.441 144.646 200.827Z" fill="#FFD200"/>
<path opacity="0.08" d="M151.35 169.92L151.31 195.79C151.29 207.51 118.6 216.96 78.2999 216.9C37.9999 216.83 5.33987 207.27 5.35987 195.55L5.39987 169.68L151.35 169.93V169.92Z" fill="#000001"/>
<path opacity="0.08" d="M148.47 315.02C178.387 315.02 202.64 290.767 202.64 260.85C202.64 230.932 178.387 206.68 148.47 206.68C118.553 206.68 94.2998 230.932 94.2998 260.85C94.2998 290.767 118.553 315.02 148.47 315.02Z" fill="#000001"/>
<path opacity="0.08" d="M112.43 206.61C112.43 206.61 55.7202 223.92 64.8302 309.8C64.8302 309.8 101.8 311.05 119.36 306.54C135.05 302.51 112.44 206.61 112.44 206.61H112.43Z" fill="#000001"/>
<path d="M151.357 169.944C151.377 158.329 118.71 148.857 78.3936 148.786C38.0769 148.716 5.37729 158.074 5.35702 169.689C5.33675 181.304 38.0035 190.776 78.3202 190.846C118.637 190.917 151.337 181.558 151.357 169.944Z" fill="#FFD200"/>
<path d="M148.47 315.02C178.387 315.02 202.64 290.767 202.64 260.85C202.64 230.932 178.387 206.68 148.47 206.68C118.553 206.68 94.2998 230.932 94.2998 260.85C94.2998 290.767 118.553 315.02 148.47 315.02Z" fill="#FFD200"/>
<g opacity="0.08">
<path d="M151.11 298.7C181.027 298.7 205.28 274.447 205.28 244.53C205.28 214.613 181.027 190.36 151.11 190.36C121.193 190.36 96.9399 214.613 96.9399 244.53C96.9399 274.447 121.193 298.7 151.11 298.7Z" fill="#000001"/>
</g>
<path opacity="0.08" d="M148.47 315.02C178.387 315.02 202.64 290.767 202.64 260.85C202.64 230.932 178.387 206.68 148.47 206.68C118.553 206.68 94.2998 230.932 94.2998 260.85C94.2998 290.767 118.553 315.02 148.47 315.02Z" fill="#000001"/>
<path d="M151.11 298.7C181.027 298.7 205.28 274.447 205.28 244.53C205.28 214.613 181.027 190.36 151.11 190.36C121.193 190.36 96.9399 214.613 96.9399 244.53C96.9399 274.447 121.193 298.7 151.11 298.7Z" fill="#FFD200"/>
<path d="M50.7402 75.3301C50.7402 75.3301 46.9502 89.6801 35.6602 96.4901C35.6602 96.4901 47.2302 94.7101 57.1302 108.92C57.1302 108.92 60.1602 96.1001 69.5302 87.7401C69.5302 87.7401 55.4802 87.5801 50.7402 75.3401V75.3301Z" fill="#E6E6E6"/>
<path d="M362.89 69.9702C362.89 69.9702 351.07 78.9502 337.98 77.3602C337.98 77.3602 348.2 83.0802 347.25 100.37C347.25 100.37 357.53 92.1302 370.06 91.3102C370.06 91.3102 359.09 82.5402 362.89 69.9702Z" fill="#E6E6E6"/>
<path d="M330.74 0C330.74 0 321.58 6.96 311.44 5.72C311.44 5.72 319.36 10.15 318.62 23.55C318.62 23.55 326.58 17.16 336.3 16.53C336.3 16.53 327.8 9.73 330.74 0Z" fill="#E6E6E6"/>
</svg>
