<svg id="_0542_flying_kite" xmlns="http://www.w3.org/2000/svg" viewBox="0 0 500 500" data-imageid="flying-kite-53" imageName="Flying Kite" class="illustrations_image" style="width: 152px;"><defs><style>.cls-1_flying-kite-53{fill:#fff;}.cls-2_flying-kite-53{fill:#f4a28c;}.cls-3_flying-kite-53{opacity:.46;}.cls-3_flying-kite-53,.cls-4_flying-kite-53,.cls-5_flying-kite-53,.cls-6_flying-kite-53,.cls-7_flying-kite-53,.cls-8_flying-kite-53{fill:none;}.cls-9_flying-kite-53{fill:#a5a5a5;}.cls-10_flying-kite-53{fill:#ce8172;}.cls-11_flying-kite-53{fill:#e6e6e6;}.cls-4_flying-kite-53{opacity:.03;}.cls-5_flying-kite-53{opacity:.08;}.cls-6_flying-kite-53{opacity:.31;}.cls-7_flying-kite-53{opacity:.3;}.cls-12_flying-kite-53{fill:#24285b;}.cls-13_flying-kite-53{fill:#000001;}.cls-14_flying-kite-53{fill:#ffd200;}.cls-8_flying-kite-53{opacity:.49;}.cls-15_flying-kite-53{fill:#68e1fd;}</style></defs><g id="bg_flying-kite-53"><g class="cls-7_flying-kite-53"><path class="cls-11_flying-kite-53" d="m383.88,49.48c48.55,20.3,95.08,75.13,97.07,145.33,1.98,69.97-13.45,141.56-101.36,168.4-82.58,25.21-279.06,32.68-332.18-55.09C-2.66,225.38,11.91,92,97.89,50.16c60.28-29.33,191.18-40.32,285.99-.68Z"/></g><g class="cls-8_flying-kite-53"><path class="cls-11_flying-kite-53" d="m455.99,165.8c0-4.18-3.39-7.57-7.57-7.57-.41,0-.82.04-1.22.11-1.72-3.2-5.1-5.37-8.99-5.37-.13,0-.25.01-.37.02.23-.94.37-1.92.37-2.94,0-6.69-5.42-12.11-12.11-12.11s-12.11,5.42-12.11,12.11c0,1.01.14,1.99.37,2.94-.12,0-.25-.02-.37-.02-5.63,0-10.2,4.57-10.2,10.2s4.57,10.2,10.2,10.2h35.4v-.07c3.71-.48,6.58-3.65,6.58-7.5Z"/></g><g class="cls-4_flying-kite-53"><ellipse class="cls-13_flying-kite-53" cx="260.21" cy="452.18" rx="194.87" ry="24.04"/></g><path class="cls-11_flying-kite-53" d="m114.31,162.63c0-4.81-3.9-8.72-8.72-8.72-.48,0-.94.05-1.4.12-1.98-3.68-5.87-6.19-10.35-6.19-.15,0-.29.02-.43.02.27-1.08.43-2.21.43-3.38,0-7.7-6.24-13.95-13.95-13.95s-13.95,6.24-13.95,13.95c0,1.17.16,2.3.43,3.38-.14,0-.28-.02-.43-.02-6.49,0-11.75,5.26-11.75,11.75s5.26,11.75,11.75,11.75h40.78v-.08c4.27-.55,7.58-4.21,7.58-8.64Z"/><g class="cls-8_flying-kite-53"><path class="cls-11_flying-kite-53" d="m357.13,319.92c0-4.58-3.71-8.3-8.3-8.3-.45,0-.9.05-1.33.12-1.89-3.51-5.59-5.89-9.85-5.89-.14,0-.27.02-.41.02.26-1.03.41-2.11.41-3.22,0-7.33-5.94-13.27-13.27-13.27s-13.27,5.94-13.27,13.27c0,1.11.15,2.19.41,3.22-.14,0-.27-.02-.41-.02-6.18,0-11.18,5.01-11.18,11.18s5.01,11.18,11.18,11.18h38.81v-.08c4.07-.53,7.22-4,7.22-8.22Z"/></g><g class="cls-8_flying-kite-53"><path class="cls-11_flying-kite-53" d="m255,82.1c0-4.58-3.71-8.3-8.3-8.3-.45,0-.9.05-1.33.12-1.89-3.51-5.59-5.89-9.85-5.89-.14,0-.27.02-.41.02.26-1.03.41-2.11.41-3.22,0-7.33-5.94-13.27-13.27-13.27s-13.27,5.94-13.27,13.27c0,1.11.15,2.19.41,3.22-.14,0-.27-.02-.41-.02-6.18,0-11.18,5.01-11.18,11.18s5.01,11.18,11.18,11.18h38.81v-.08c4.07-.53,7.22-4,7.22-8.22Z"/></g><path class="cls-11_flying-kite-53" d="m390.99,445.2s7.68-11.04-3.77-14.08c-11.45-3.05,2.76-17.91-7.9-19.87-10.66-1.95-8.88,13.78-8.88,13.78,0,0-7.36-6.34-12.43-1.02-5.08,5.33,2.03,11.17,2.03,11.17,0,0-10.25,3.54-3.86,10.01h34.82Z"/><path class="cls-9_flying-kite-53" d="m375.59,446.67s4.88-8.34,12.06-7.31c7.19,1.03,6.42,7.31,6.42,7.31h-18.48Z"/><polygon class="cls-11_flying-kite-53" points="113.67 445.79 105.87 425.91 114.45 433.32 113.67 418.69 124.32 432.93 124.32 417.53 134.72 445.79 113.67 445.79"/></g><g id="person_kite_flying-kite-53"><path class="cls-14_flying-kite-53" d="m363.96,193.52c-.16.65,13.98,34.78,28.31,33.64,14.33-1.14,21.5-26.18,43.91-15.81,22.41,10.37,45.12,1.99,45.12,1.99l-10.66,22.17s-12.18,1.2-26.32-1.16c-14.14-2.36-19.17-15.5-28.51-7.1-9.34,8.4-19.58,18.5-33,15.27-13.42-3.23-18.86-49.01-18.86-49.01Z"/><path class="cls-14_flying-kite-53" d="m390.84,109.62s5,16.89,13.71,12.96c8.71-3.93,12.75-11.81,18.05-6.85l3.4-10.36s-10.04-4.23-14.37.74c-4.33,4.97-7.23,12.21-10.15,11.02s-10.63-7.51-10.63-7.51Z"/><path class="cls-14_flying-kite-53" d="m298.67,136.6c-.17-.14-.34-.3-.51-.45-.13,2.92-1.96,7.07-9.32,11.09-13.9,7.58-14.42,20.67-14.42,20.67l11.97,1.43s-6.49-11,3.01-16.34c7.69-4.33,10.52-10.21,9.32-16.38-.02-.01-.04-.01-.05-.03Z"/><g class="cls-5_flying-kite-53"><path class="cls-13_flying-kite-53" d="m363.96,193.52c-.16.65,13.98,34.78,28.31,33.64,14.33-1.14,21.5-26.18,43.91-15.81,22.41,10.37,45.12,1.99,45.12,1.99l-10.66,22.17s-12.18,1.2-26.32-1.16c-14.14-2.36-19.17-15.5-28.51-7.1-9.34,8.4-19.58,18.5-33,15.27-13.42-3.23-18.86-49.01-18.86-49.01Z"/></g><g class="cls-5_flying-kite-53"><path class="cls-13_flying-kite-53" d="m390.84,109.62s5,16.89,13.71,12.96c8.71-3.93,12.75-11.81,18.05-6.85l3.4-10.36s-10.04-4.23-14.37.74c-4.33,4.97-7.23,12.21-10.15,11.02s-10.63-7.51-10.63-7.51Z"/></g><g class="cls-5_flying-kite-53"><path class="cls-13_flying-kite-53" d="m298.67,136.6c-.17-.14-.34-.3-.51-.45-.13,2.92-1.96,7.07-9.32,11.09-13.9,7.58-14.42,20.67-14.42,20.67l11.97,1.43s-6.49-11,3.01-16.34c7.69-4.33,10.52-10.21,9.32-16.38-.02-.01-.04-.01-.05-.03Z"/></g><polygon class="cls-14_flying-kite-53" points="369.07 209.21 297.2 135.97 333.69 80.64 393.36 109.51 369.07 209.21"/><path class="cls-1_flying-kite-53" d="m298.75,136.72c-.15,0-.3-.07-.4-.2-.17-.22-.12-.53.1-.7,40.51-30.3,93.22-25.85,93.74-25.8.27.03.48.27.45.54s-.26.48-.54.45c-.52-.05-52.86-4.46-93.05,25.6-.09.07-.19.1-.3.1Z"/><path class="cls-1_flying-kite-53" d="m368.56,207.86c-.22,0-.42-.15-.48-.37l-34.36-124.87c-.07-.27.08-.54.35-.61.26-.07.54.08.61.35l34.36,124.87c.07.27-.08.54-.35.61-.04.01-.09.02-.13.02Z"/><path class="cls-12_flying-kite-53" d="m351.75,149.19c-.06,0-.11,0-.17-.03l-35.65-13.01,22.38-37.42c.14-.24.45-.31.69-.17.24.14.31.45.17.69l-21.76,36.38,34.51,12.6c.26.09.39.38.3.64-.07.2-.27.33-.47.33Z"/><path class="cls-12_flying-kite-53" d="m76.94,211.23c-9.92,0-19.41-.77-28.24-2.5-.27-.05-.45-.32-.4-.59.05-.27.31-.45.59-.4,49.21,9.62,119.31-10.54,169.46-29.15,54.37-20.18,97.65-42.93,98.08-43.16.24-.13.55-.04.68.21s.04.55-.21.68c-.43.23-43.76,23-98.19,43.2-41.3,15.33-96.11,31.7-141.77,31.7Z"/><path class="cls-15_flying-kite-53 targetColor" d="m154.05,258.88l-27.28,5.9c-20.34,4.4-41.27-4.4-52.35-22.02l-19.32-30.72-10.7,4.49,14.25,35.48c12.3,30.61,41.21,51.32,74.15,53.12l37.46,2.05-16.22-48.3Z" style="fill: rgb(13, 110, 253);"/><g class="cls-3_flying-kite-53"><path class="cls-1_flying-kite-53" d="m154.05,258.88l-27.28,5.9c-20.34,4.4-41.27-4.4-52.35-22.02l-19.32-30.72-10.7,4.49,14.25,35.48c12.3,30.61,41.21,51.32,74.15,53.12l37.46,2.05-16.22-48.3Z"/></g><path class="cls-15_flying-kite-53 targetColor" d="m195.28,413.89s3.65,4.83,1.19,9.38c-2.45,4.55,1.02,8.43,4.65,5.27s5.19-16.4,5.19-16.4l-8.12-4.8-2.91,6.55Z" style="fill: rgb(13, 110, 253);"/><path class="cls-15_flying-kite-53 targetColor" d="m269.85,434.7s5.48,2.58,5.43,7.74c-.05,5.16,4.83,6.98,6.57,2.5s-3.06-16.93-3.06-16.93l-9.42-.46.48,7.15Z" style="fill: rgb(13, 110, 253);"/><path class="cls-12_flying-kite-53" d="m154.02,356.65l33.83,36.47c17.49,18.85,40.06,32.24,64.99,38.54l16.36,4.14,1.85-8.98-24.75-14.47c-9.44-5.52-17.46-13.19-23.39-22.38l-20.79-32.21-48.1-1.11Z"/><g class="cls-5_flying-kite-53"><path class="cls-13_flying-kite-53" d="m154.02,356.65l33.83,36.47c17.49,18.85,40.06,32.24,64.99,38.54l16.36,4.14,1.85-8.98-24.75-14.47c-9.44-5.52-17.46-13.19-23.39-22.38l-20.79-32.21-48.1-1.11Z"/></g><path class="cls-2_flying-kite-53" d="m157.07,228.89s3.55,5.6,4.59,10c.42,1.79-.71,3.61-2.5,4-2.23.49-5.38.51-7.65-2.26l-4.42-4.22s-2.68-2.74-.6-6.85c2.08-4.1,8.6-4.18,10.59-.67Z"/><polygon class="cls-2_flying-kite-53" points="149.94 236.83 147.88 258.44 159.87 258.73 156.56 242.89 149.94 236.83"/><path class="cls-12_flying-kite-53" d="m155.74,229.89c-1,.59-2.89,1.56-5.64,2.4,0,0,3.17,1.61,2.79,5.38s-4,4.1-4,4.1l-3.82-7.6c-1.18-2.18-1.09-4.84.26-6.92.55-.85,1.19-1.74,1.88-2.54,1.72-2,5.66-2.2,6.85-4.68.52-1.09,2.03-1.22,2.73-.24,1.53,2.12,3,5.95.54,8.82-.45.53-1.01.94-1.6,1.29Z"/><path class="cls-2_flying-kite-53" d="m153.43,237.17s-1.22-2.24-2.83-1.18c-1.61,1.06.13,4.31,2.6,3.41l.23-2.23Z"/><path class="cls-2_flying-kite-53" d="m159.12,232.53l2.81,1.42c.69.35.79,1.3.18,1.78l-2.03,1.59-.96-4.79Z"/><g class="cls-6_flying-kite-53"><path class="cls-10_flying-kite-53" d="m156.4,243.41s-2.25.15-4.35-1.21c0,0,.24,4,5.48,6.64l-1.13-5.43Z"/></g><path class="cls-15_flying-kite-53 targetColor" d="m147.41,255.87l11.98.64s62.65-4.49,63.96,32.81-4.55,60.55-4.55,60.55l-43.96,11.21s-100.74-67.41-27.42-105.21Z" style="fill: rgb(13, 110, 253);"/><g class="cls-5_flying-kite-53"><path class="cls-13_flying-kite-53" d="m168.62,283.4s-9.75,14.7,13.44,24.89c23.19,10.18,19.82,26.53,3.71,24.24-16.11-2.29-37.8-15.76-41.22,2.93,0,0,15.86,16.48,30.27,25.63l43.96-11.21.55-2.47,9.21-34.25-16.64-24.22-43.28-5.53Z"/></g><path class="cls-15_flying-kite-53 targetColor" d="m168.42,272.56c3.8-10.76,15.77-16.2,26.62-12.65,14.88,4.87,36.57,16.44,42.22,43.08,8.84,41.63-6.32,63.34-81.25,23.39l4-8.5s52.58,17.55,52.84-.08c.22-14.87-53.22-20.34-44.43-45.24Z" style="fill: rgb(13, 110, 253);"/><g class="cls-3_flying-kite-53"><path class="cls-1_flying-kite-53" d="m168.42,272.56c3.8-10.76,15.77-16.2,26.62-12.65,14.88,4.87,36.57,16.44,42.22,43.08,8.84,41.63-6.32,63.34-81.25,23.39l4-8.5s52.58,17.55,52.84-.08c.22-14.87-53.22-20.34-44.43-45.24Z"/></g><path class="cls-12_flying-kite-53" d="m218.79,349.87s-79.46-6.22-80.07,13.88c-.61,20.1,56.84,52.18,56.84,52.18l6.85-8.7-34-36.79s64.19,30,50.38-20.56Z"/><path class="cls-2_flying-kite-53" d="m44.4,216.53s-4.8-10.49.87-14.36c5.67-3.87,9.82,9.87,9.82,9.87l-10.7,4.49Z"/><path class="cls-12_flying-kite-53" d="m131.64,354.46c-.08,0-.15-.02-.23-.06-.25-.13-.34-.43-.22-.67l19.23-37.5c-6.96,4.26-35.88,20.69-59.45,15.11-10.13-2.4-18.09-8.54-23.64-18.26-23.75-41.56-21.65-101.74-21.62-102.35.01-.28.25-.5.52-.48.28.01.49.24.48.52-.02.6-2.11,60.5,21.49,101.81,5.41,9.47,13.15,15.45,23,17.78,3.29.78,6.69,1.12,10.12,1.12,24.13,0,49.81-16.88,50.1-17.07l1.6-1.06-20.94,40.83c-.09.17-.26.27-.45.27Z"/><path class="cls-2_flying-kite-53" d="m160.01,317.88s-5.93-8.83-11.26-8.82-4.59,11.27,7.26,17.32l4-8.5Z"/></g></svg>