<svg width="351" height="384" viewBox="0 0 351 384" fill="none" xmlns="http://www.w3.org/2000/svg">
<circle opacity="0.24" cx="168.06" cy="216.06" r="167.5" fill="#E6E6E6"/>
<path d="M96.87 139C96.87 139 150.58 131.09 235.3 17.6902L264.5 249C264.5 249 173.72 195.62 111.47 218.57C111.47 218.57 77.76 182.49 96.87 139Z" fill="#B3D2FF"/>
<path d="M283.93 254.501C320.92 250.75 345.284 192.258 338.347 123.855C331.411 55.4516 295.802 3.04054 258.812 6.79134C221.822 10.5421 197.458 69.0345 204.394 137.438C211.33 205.841 246.94 258.252 283.93 254.501Z" fill="#0D6EFD"/>
<path d="M46.62 225.15C46.62 225.15 40.28 256.06 71.11 261.11C101.93 266.16 137.68 344.63 137.68 344.63L175.76 321.38C175.76 321.38 110.3 233.14 129.97 214.08L46.61 225.14L46.62 225.15Z" fill="#B3D2FF"/>
<path opacity="0.46" d="M46.62 225.15C46.62 225.15 40.28 256.06 71.11 261.11C101.93 266.16 137.68 344.63 137.68 344.63L175.76 321.38C175.76 321.38 110.3 233.14 129.97 214.08L46.61 225.14L46.62 225.15Z" fill="#B3D2FF"/>
<path d="M215.99 191.97L276.09 171.76L268.95 101.35L203.17 105.62C203.17 105.62 197.88 144.45 215.99 191.98V191.97Z" fill="#B3D2FF"/>
<path opacity="0.18" d="M215.99 191.97L276.09 171.76L268.95 101.35L203.17 105.62C203.17 105.62 197.88 144.45 215.99 191.98V191.97Z" fill="#000001"/>
<path d="M276.083 171.791C286.6 170.724 293.527 154.096 291.556 134.65C289.584 115.205 279.46 100.305 268.943 101.372C258.426 102.438 251.499 119.066 253.471 138.512C255.443 157.958 265.567 172.857 276.083 171.791Z" fill="#B3D2FF"/>
<path d="M103.24 137.41C103.24 137.41 14.6 158.46 9.54996 177.16C4.49996 195.86 20.16 238.17 42.2 237.5C64.24 236.84 109.87 216.74 109.87 216.74C109.87 216.74 87.1599 173.34 103.24 137.41Z" fill="#0D6EFD"/>
<path d="M117.03 215.81L133.86 252.27L151.72 242.18C156.1 239.71 157.95 234.37 156.05 229.72L149.32 213.3C149.32 213.3 130.03 210.19 117.04 215.82L117.03 215.81Z" fill="#24285B"/>
</svg>
