<svg width="500" height="500" viewBox="0 0 500 500" fill="none" xmlns="http://www.w3.org/2000/svg">
<path opacity="0.3" d="M387.68 132.25C436.93 149.11 483.84 195.36 485.26 255.08C486.68 314.6 470.37 375.63 380.65 399.21C296.38 421.36 96.2901 429.38 42.9601 355.15C-7.30988 285.18 8.66013 171.58 96.5401 135.25C158.15 109.78 291.5 99.32 387.68 132.25Z" fill="#E6E6E6"/>
<path d="M200.02 290.58C200.02 290.58 253.08 289.66 349.45 190.38L348.63 422.62C348.63 422.62 267.4 355.12 204.18 369.55C204.18 369.55 176.03 330.35 200.02 290.58Z" fill="#E6E6E6"/>
<path d="M436.01 306.204C437.875 239.028 409.938 183.753 373.612 182.745C337.285 181.737 306.325 235.376 304.461 302.552C302.596 369.729 330.533 425.003 366.859 426.011C403.185 427.02 434.145 373.38 436.01 306.204Z" fill="#A5A5A5"/>
<path d="M148.35 367.21C148.35 367.21 140.78 389.23 162.86 395.85C184.94 402.47 203.65 463.28 203.65 463.28L233.72 449.88C233.72 449.88 194.19 379.11 210.39 367.02L148.35 367.21Z" fill="#A5A5A5"/>
<path d="M148.35 367.21C148.35 367.21 140.31 391.1 162.86 395.85C184.1 400.32 201.86 458.66 203.65 463.28L233.72 449.88C233.72 449.88 194.19 379.11 210.39 367.02L148.35 367.21Z" fill="#A5A5A5"/>
<path d="M308.83 356.89L369.63 344.85L371.55 275.7L307.25 271.58C307.25 271.58 297.25 308.55 308.83 356.9V356.89Z" fill="#0D6EFD"/>
<path d="M308.83 356.89L369.63 344.85L371.55 275.7L307.25 271.58C307.25 271.58 297.25 308.55 308.83 356.9V356.89Z" fill="#E6E6E6"/>
<path d="M389.286 310.791C389.816 291.694 381.877 275.982 371.553 275.695C361.229 275.409 352.43 290.657 351.9 309.753C351.37 328.849 359.309 344.562 369.633 344.848C379.957 345.135 388.756 329.887 389.286 310.791Z" fill="white"/>
<path d="M206.39 289.84C206.39 289.84 117.82 299.11 110.58 316.6C103.34 334.09 113.2 377.07 134.64 379.19C156.08 381.32 202.85 367.57 202.85 367.57C202.85 367.57 186.29 322.65 206.39 289.84Z" fill="#A5A5A5"/>
<path d="M200.76 367.05L209.62 395.32L223.64 389.63C227.08 388.24 228.94 384.5 227.99 380.92L224.63 368.26C224.63 368.26 210.81 364.15 200.77 367.04L200.76 367.05Z" fill="#A5A5A5"/>
<path d="M230.66 251.55C230.66 251.55 256.74 234.77 267.89 251.95C279.04 269.13 249.72 274.63 249.72 274.63L230.65 251.55H230.66Z" fill="#24285B"/>
<path d="M255.7 124.23L305.92 192.94C309.11 197.75 315.95 198.34 319.92 194.14L353.54 158.56L364.58 169.71C364.58 169.71 329.78 229.53 309.15 229.54C288.52 229.55 250.41 189.6 250.41 189.6L255.7 124.23Z" fill="#0D6EFD"/>
<path opacity="0.46" d="M255.7 124.23L305.92 192.94C309.11 197.75 315.95 198.34 319.92 194.14L353.54 158.56L364.58 169.71C364.58 169.71 329.78 229.53 309.15 229.54C288.52 229.55 250.41 189.6 250.41 189.6L255.7 124.23Z" fill="white"/>
<path d="M244.24 62.44L229.79 99.16L249.73 117.38L252.76 76.34L244.24 62.44Z" fill="#F4A28C"/>
<path opacity="0.31" d="M252.56 82.78C252.56 82.78 248.81 81.11 246.58 77.16C246.58 77.16 245.33 84.27 251.53 92.94L252.55 82.78H252.56Z" fill="#CE8172"/>
<path d="M262.06 63.09C262.06 63.09 262.14 75.13 259.49 82.93C258.41 86.09 254.92 87.8 251.78 86.68C247.87 85.29 243 82.27 242.17 75.82L239.42 65.05C239.42 65.05 237.94 58.24 245.09 53.92C252.25 49.6 262.37 55.76 262.05 63.09H262.06Z" fill="#F4A28C"/>
<path d="M261.72 70.68L264.69 75.57C265.42 76.78 264.65 78.34 263.25 78.49L258.59 78.99L261.72 70.68Z" fill="#F4A28C"/>
<path d="M237.41 77.35L236.4 61.01C236.4 61.01 227.74 57.7 231.6 52.38C235.46 47.06 238.27 51.66 239.74 44.97C241.21 38.28 246.93 38 250.05 42.54C253.17 47.08 252.42 41.45 257.38 41.69C262.35 41.93 263.2 44.34 262.58 48.03C261.97 51.72 269.7 49.19 270.57 54.18C271.45 59.17 270.81 63.73 258.65 62.1C246.49 60.47 253.14 72.06 237.4 77.36L237.41 77.35Z" fill="#2E2E2E"/>
<path d="M248.48 72.34C248.48 72.34 248.76 67.71 245.26 67.79C241.76 67.87 241.31 74.55 245.98 75.55L248.48 72.34Z" fill="#F4A28C"/>
<path opacity="0.08" d="M259.68 269.49C259.68 269.49 293.93 258.27 296.58 284.96C299.23 311.65 276 355.44 276 355.44C276 355.44 289.63 375.18 265.56 369.62L258.78 359.92L263.65 313.89L258.07 276.42L237.66 254.75L259.7 269.49H259.68Z" fill="#000001"/>
<path d="M231.43 250.94C231.23 251.1 231.05 251.24 230.93 251.32C230.87 251.38 230.81 251.42 230.77 251.44C230.69 251.5 230.65 251.54 230.65 251.54L196.01 248.25L172.4 246C172.4 246 166.74 194.88 173.66 151.56C178.15 123.5 200.33 109.8 215.44 103.63C223.66 100.28 229.78 99.16 229.78 99.16L249.72 117.37C313.08 183.51 239.85 244.32 231.43 250.94Z" fill="#0D6EFD"/>
<path d="M172.41 246C172.41 246 164.43 293.67 192.66 290.76C208.99 289.08 225.55 290.05 236.6 291.16C244.16 291.92 249.98 298.13 250.28 305.72L251.95 348.47L265.68 354.26L275.53 302.99C278.73 286.34 270.14 269.66 254.73 262.59L230.67 251.55L172.41 246Z" fill="#24285B"/>
<path opacity="0.08" d="M231.43 250.94C231.23 251.1 231.05 251.24 230.93 251.32C230.87 251.38 230.81 251.42 230.77 251.44C230.69 251.5 230.65 251.54 230.65 251.54L196.01 248.25C196.01 248.25 207.22 228.94 217.47 207.78C224.95 192.32 219.11 133.96 215.44 103.63C223.66 100.28 229.78 99.16 229.78 99.16L249.72 117.37C313.08 183.51 239.85 244.32 231.43 250.94Z" fill="#000001"/>
<path d="M214.12 146.99C238.8 150.6 252.25 119.09 233.06 103.15C227.73 98.72 221.35 94.79 213.89 92.36C187.48 83.74 81.2399 31.65 81.2399 31.65L72.6499 47.95C72.6499 47.95 148.34 112.4 190.3 137.83C199.14 143.19 207.08 145.95 214.12 146.98V146.99Z" fill="#0D6EFD"/>
<path opacity="0.46" d="M214.12 146.99C238.8 150.6 252.25 119.09 233.06 103.15C227.73 98.72 221.35 94.79 213.89 92.36C187.48 83.74 81.2399 31.65 81.2399 31.65L72.6499 47.95C72.6499 47.95 148.34 112.4 190.3 137.83C199.14 143.19 207.08 145.95 214.12 146.98V146.99Z" fill="white"/>
<path d="M79.8199 34.34C79.8199 34.34 70.0799 15.74 62.9699 25.8C55.8599 35.86 72.6499 47.95 72.6499 47.95L79.8199 34.34Z" fill="#F4A28C"/>
<path d="M361.07 166.17C361.07 166.17 377.67 154.96 366.46 145.09C355.25 135.22 353.53 158.56 353.53 158.56L361.06 166.17H361.07Z" fill="#F4A28C"/>
<path d="M346.337 152.205L366.289 153.258L367.948 121.812L347.996 120.759L346.337 152.205Z" fill="#A0A0A0"/>
<path d="M262.38 352.88C262.38 352.88 262.93 365.09 269.2 366.85C269.2 366.85 269.67 375.51 260.57 373.14C251.47 370.77 250.17 358.62 250.17 358.62L254.35 349.49L262.39 352.88H262.38Z" fill="#0D6EFD"/>
<path d="M366.21 253.49L430.82 195.22L436.35 223.17L488.57 189.61L414.82 259.91L413.94 230.55L366.21 253.49Z" fill="#FFD200"/>
<path d="M366.21 365.35L421.9 415.59L426.68 391.5L471.69 420.43L408.12 359.83L407.36 385.13L366.21 365.35Z" fill="#FFD200"/>
</svg>
