<svg transform="scale(1)" id="_0187_marketing_3" xmlns="http://www.w3.org/2000/svg" viewBox="0 0 500 500" class="show_show__wrapper__graphic__5Waiy "><title>React</title><defs><style>.cls-1{opacity:.18;}.cls-1,.cls-2{fill:#000001;}.cls-3{fill:#e6e6e6;opacity:.24;}.cls-4{fill:#f4a28c;}.cls-5{fill:#ce8172;}.cls-6{fill:#fff;opacity:.46;}.cls-7{fill:#0d6efd;}.cls-2{opacity:.06;}.cls-8{fill:#ffd200;}.cls-9{fill:#b3d2ff;}</style></defs><ellipse class="cls-3" id="bg" cx="250" cy="250" rx="220.52" ry="191.68"></ellipse><g id="marketing"><path class="cls-9" d="m218.31,154.44s53.71-7.91,138.43-121.31l29.71,235.74s-91.29-57.81-153.54-34.86c0,0-33.71-36.08-14.6-79.57Z"></path><ellipse class="cls-7" cx="392.82" cy="146.06" rx="67.32" ry="124.49" transform="translate(-12.74 40.4) rotate(-5.79)"></ellipse><path class="cls-9" d="m168.06,240.59s-6.34,30.91,24.49,35.96c30.82,5.05,66.57,83.52,66.57,83.52l38.08-23.25s-65.46-88.24-45.79-107.3l-83.36,11.06Z"></path><path class="cls-6" d="m168.06,240.59s-6.34,30.91,24.49,35.96c30.82,5.05,66.57,83.52,66.57,83.52l38.08-23.25s-65.46-88.24-45.79-107.3l-83.36,11.06Z"></path><path class="cls-9" d="m337.43,207.41l60.1-20.21-7.14-70.41-65.78,4.27s-5.29,38.83,12.82,86.36Z"></path><path class="cls-1" d="m337.43,207.41l60.1-20.21-7.14-70.41-65.78,4.27s-5.29,38.83,12.82,86.36Z"></path><ellipse class="cls-9" cx="393.96" cy="151.99" rx="19.14" ry="35.39" transform="translate(-13.33 40.55) rotate(-5.79)"></ellipse><path class="cls-7" d="m224.68,152.85s-88.64,21.05-93.69,39.75c-5.05,18.7,10.61,61.01,32.65,60.34,22.04-.66,67.67-20.76,67.67-20.76,0,0-22.71-43.4-6.63-79.33Z"></path><polygon class="cls-4" points="54.38 439.58 192.6 328.31 235.49 362.48 162.69 473.89 54.38 439.58"></polygon><path class="cls-5" d="m257.97,265.48s19.11-2.3,27.03,16.65c7.92,18.95,7.6,31.29-13.18,38.14-20.78,6.84-25.78-48.72-25.78-48.72l11.93-6.07Z"></path><path class="cls-7" d="m238.47,231.25l16.83,36.46,17.86-10.09c4.38-2.47,6.23-7.81,4.33-12.46l-6.73-16.42s-19.29-3.11-32.28,2.52Z"></path><path class="cls-4" d="m189.17,336.57s6.44-60.99,28.44-68.27,48.79,7.82,35.93,24.21c-12.86,16.39-29.2-1.53-29.2-1.53l25.35,50.67-14.18,20.82-46.33-25.9Z"></path><path class="cls-4" d="m250.97,241.4c2.86-2.11,6.77-2.04,9.65.06,3.35,2.44,7.03,6.59,5.42,12.46-2.77,10.07-20.38,23.39-27.54,17.98-6.12-4.63,2.69-23.27,12.48-30.49Z"></path><polygon class="cls-8" points="39.02 435.7 167.52 477.99 231.31 384.69 163.86 337.04 39.02 435.7"></polygon><polygon class="cls-2" points="207.88 368.14 116.44 461.18 167.52 477.99 231.31 384.69 207.88 368.14"></polygon></g></svg>