<svg id="_0007_moving_forward" xmlns="http://www.w3.org/2000/svg" viewBox="0 0 500 500" data-imageid="moving-forward-60" imageName="Moving Forward" class="illustrations_image" style="width: 159px;"><defs><style>.cls-1_moving-forward-60{fill:#fff;}.cls-2_moving-forward-60{fill:#f4a28c;}.cls-3_moving-forward-60{fill:#e6e6e6;}.cls-4_moving-forward-60{fill:#ce8172;opacity:.31;}.cls-5_moving-forward-60{opacity:.02;}.cls-5_moving-forward-60,.cls-6_moving-forward-60{fill:#000001;}.cls-7_moving-forward-60{fill:#24285b;}.cls-6_moving-forward-60{opacity:.08;}.cls-8_moving-forward-60{fill:#ffd200;}.cls-9_moving-forward-60{fill:#68e1fd;}</style></defs><ellipse id="sd_moving-forward-60" class="cls-5_moving-forward-60" cx="225.45" cy="419.18" rx="185.54" ry="26.68"/><g id="runner_moving-forward-60"><path class="cls-2_moving-forward-60" d="m236.67,230.21s44.93,60.16,79.84,79.66c34.91,19.5,101.72-84.67,101.72-84.67l-12.82-9.48-73.15,55.64s-42.04-94.48-74.07-93.48c-32.03,1.01-35.32,34.99-21.52,52.33Z"/><path class="cls-2_moving-forward-60" d="m312.68,134.23l1.49,6.14c.37,1.52-.97,2.9-2.49,2.59l-5.07-1.04,6.07-7.69Z"/><path class="cls-2_moving-forward-60" d="m316.56,126.52s-5.24,12.21-11.37,18.92c-2.48,2.72-6.77,2.91-9.45.39-3.33-3.13-6.93-8.34-4.92-15.22l1.98-12.1s1.51-7.54,10.66-8.75c9.15-1.21,16.66,9.49,13.1,16.77Z"/><polygon class="cls-2_moving-forward-60" points="293.11 122.13 258.1 148.89 274.46 166.59 292.76 140.78 293.11 122.13"/><path class="cls-7_moving-forward-60" d="m289.84,120.62l-3.84,6.94s4.63,5.63,11.31,1.98,5.75-10.71,5.75-10.71c0,0-.71,5.04,4.31,4.48s7.39.87,6.15,3.79c-1.24,2.92,3.68,5.4,8.72.93,5.04-4.46-3.97-6.53.19-8.53,4.17-2,8.78-2.43,5.42-7.99-3.36-5.56-6.13,1.12-7.58-4.07-1.45-5.19.12-9.3-6.35-10.33-6.47-1.03-5.66,6.22-10.67,2.23s-7.31-3.65-11.13,1.96c-2.49,3.65-4.33,6.34-3.03,8.43,2.09,3.36,2.67,7.43.75,10.89Z"/><path class="cls-2_moving-forward-60" d="m298.74,129.87s2.33-4.55-1.24-6.02c-3.57-1.47-6.98,5.09-2.7,8.17l3.95-2.15Z"/><path class="cls-2_moving-forward-60" d="m232.17,327.81s42.01,17.75,59.08,71.26l-5.8,6.27s-21.37-35.17-70.32-62.34l17.04-15.19Z"/><path class="cls-2_moving-forward-60" d="m229.39,347.27s-45.87,55.56-91.91,23.2l2.41-7.49s48.49,16.21,67.8-42.42l21.7,26.71Z"/><path class="cls-4_moving-forward-60" d="m292.24,141.51s-2.72-4.38-2.38-8.36c0,0-8.08,5.07-2.86,15.75l5.24-7.39Z"/><path class="cls-9_moving-forward-60 targetColor" d="m258.1,148.89l21.83,9.98c14.49,6.96,29.11,24.25,27.57,47.93-.77,11.91-3.42,17.65-7.17,34.63-4.51,20.42-4.12,41.82-21.41,53.58-12.95,8.8-30.1,23.1-33.96,39.07l-65.37-31.29s-28.93-158.87,78.51-153.9Z" style="fill: rgb(13, 110, 253);"/><path class="cls-7_moving-forward-60" d="m179.59,302.79s-9.04,25.84,13.35,36.17c22.39,10.33,54.36,25.84,54.36,25.84l18.2-20.67s-35.52-28.42-85.91-41.34Z"/><rect class="cls-8_moving-forward-60" x="65.41" y="202.38" width="258.46" height="118.98"/><polygon class="cls-1_moving-forward-60" points="275.61 261.88 202.32 225.2 202.32 245.08 125.43 245.08 125.43 277.84 202.32 277.84 202.32 298.56 275.61 261.88"/><path class="cls-6_moving-forward-60" d="m251.36,202.38s-97.39,21.09-61.44,118.59l-46.66.39-11.15-72.84,5.72-54.26,113.54,8.11Z"/><path class="cls-2_moving-forward-60" d="m223.91,150.15s-74.55,8.94-108.87,29.46c-34.32,20.53,22.64,130.39,22.64,130.39l18.7-8.16-15.82-89.37s102.86,10.7,117.97-17.57c15.1-28.26-12.71-48.06-34.62-44.76Z"/><polygon class="cls-9_moving-forward-60 targetColor" points="129.7 293.36 153.58 285.97 157.55 308.88 137.76 312.32 129.7 293.36" style="fill: rgb(13, 110, 253);"/><path class="cls-7_moving-forward-60" d="m195.98,323.64s-11.21,27.78-20.96,30.48l14.82,24.84s24.85-9.75,39.13-25.02c0,0-18.34-32.02-32.99-30.3Z"/><path class="cls-9_moving-forward-60 targetColor" d="m291.25,399.07s6.23,3.55,11.2-.01,10.05-.07,6.9,4.67-18.48,8.57-18.48,8.57l-5.41-6.94,5.8-6.27Z" style="fill: rgb(13, 110, 253);"/><path class="cls-9_moving-forward-60 targetColor" d="m139.71,371.29s-6.94,1.8-8.01,7.82c-1.07,6.02-7.16,7.06-8.2,1.46s7.27-19.03,7.27-19.03l8.72,1.2.22,8.54Z" style="fill: rgb(13, 110, 253);"/><path class="cls-2_moving-forward-60" d="m405.41,215.71s-1.07-19.62,2.89-20.81c3.96-1.19,5.83,8.34,5.83,8.34,0,0,4.64-16.75,13.34-14.67,8.7,2.08-9.23,36.62-9.23,36.62l-12.82-9.48Z"/><path class="cls-2_moving-forward-60" d="m139.74,311.98s-1.47,21.71,8.32,21.08c9.8-.63,15.49-11.69,15.49-11.69l-6-12.48-17.81,3.09Z"/><polygon class="cls-9_moving-forward-60 targetColor" points="405.41 215.71 392.94 225.2 407.26 241.15 418.23 225.2 405.41 215.71" style="fill: rgb(13, 110, 253);"/><path class="cls-6_moving-forward-60" d="m342.37,263.66v43.94s-9,5.71-18.5,4.7v-58.3l8.39,17.36,10.11-7.69Z"/><path class="cls-9_moving-forward-60 targetColor" d="m290.84,114.24s14.61,2.32,25.73,12.28l-3.09,6.39s-7.25-8.3-23.63-12.28l1-6.39Z" style="fill: rgb(13, 110, 253);"/></g><g id="bg_moving-forward-60"><polygon class="cls-3_moving-forward-60" points="154.16 106.51 96.78 77.79 96.78 92.88 16.16 92.88 16.16 122.3 96.78 122.3 96.78 135.23 154.16 106.51"/><polygon class="cls-3_moving-forward-60" points="483.84 350.57 437.96 327.61 437.96 339.67 373.49 339.67 373.49 363.19 437.96 363.19 437.96 373.54 483.84 350.57"/><circle class="cls-3_moving-forward-60" cx="225.45" cy="113.72" r="11.85"/><circle class="cls-3_moving-forward-60" cx="306.61" cy="59.62" r="5.48"/><circle class="cls-3_moving-forward-60" cx="373.49" cy="113.72" r="11.05"/><circle class="cls-3_moving-forward-60" cx="353.32" cy="191.14" r="5.48"/></g></svg>