<svg id="_0478_online_research" xmlns="http://www.w3.org/2000/svg" xmlns:xlink="http://www.w3.org/1999/xlink" viewBox="0 0 500 500" data-imageid="online-search-55" imageName="Online Search" class="illustrations_image" style="width: 157px;"><defs><style>.cls-1_online-search-55{fill:url(#linear-gradient);}.cls-1_online-search-55,.cls-2_online-search-55,.cls-3_online-search-55,.cls-4_online-search-55,.cls-5_online-search-55,.cls-6_online-search-55,.cls-7_online-search-55,.cls-8_online-search-55,.cls-9_online-search-55,.cls-10_online-search-55,.cls-11_online-search-55,.cls-12_online-search-55{stroke-width:0px;}.cls-2_online-search-55{opacity:.18;}.cls-2_online-search-55,.cls-3_online-search-55,.cls-4_online-search-55,.cls-5_online-search-55{isolation:isolate;}.cls-2_online-search-55,.cls-3_online-search-55,.cls-5_online-search-55,.cls-12_online-search-55{fill:#68e1fd;}.cls-3_online-search-55{opacity:.52;}.cls-4_online-search-55{opacity:.55;}.cls-4_online-search-55,.cls-10_online-search-55{fill:#fff;}.cls-5_online-search-55,.cls-13_online-search-55{opacity:.82;}.cls-6_online-search-55{fill:url(#linear-gradient-2-online-search-55);}.cls-7_online-search-55{fill:url(#linear-gradient-3-online-search-55);}.cls-8_online-search-55{fill:#231f20;}.cls-9_online-search-55{fill:#c14834;}.cls-11_online-search-55{fill:#ffb4a3;}</style><linearGradient id="linear-gradient-online-search-55" x1="249.63" y1="3082.52" x2="314.42" y2="2844.49" gradientTransform="translate(-41.65 3339.91) scale(1 -1)" gradientUnits="userSpaceOnUse"><stop offset="0" stop-color="#231f20"/><stop offset=".13" stop-color="#231f20" stop-opacity=".69"/><stop offset=".25" stop-color="#231f20" stop-opacity=".32"/><stop offset="1" stop-color="#231f20" stop-opacity="0"/></linearGradient><linearGradient id="linear-gradient-2-online-search-55" x1="217.09" y1="3275.72" x2="241.26" y2="2929.18" xlink:href="#linear-gradient-online-search-55"/><linearGradient id="linear-gradient-3-online-search-55" x1="205.6" y1="3182.05" x2="252.01" y2="3132.41" xlink:href="#linear-gradient-online-search-55"/></defs><g id="background_online-search-55"><path class="cls-2_online-search-55 targetColor" d="M482.62,383.17c-3.88,6.93-8.32,13.64-14.13,19.05-3.37,3.1-7.07,5.83-11.02,8.14-2.96,1.8-6.03,3.42-9.13,4.96-19.22,9.61-39.43,17.08-60.75,19.94-22.23,3-44.81,1.68-66.98-1.06-29.83-3.67-59.37-9.94-89.36-11.7-21.63-1.29-43.33-.23-64.88,1.4-19.59,1.47-39.6,3.38-58.98.62-3.43-.49-6.84-1.13-10.23-1.93-29.6-7.08-55.26-27.53-70.92-53.62-13.66-22.73-29.02-65.97-17.06-91.46,12.74-27.15,47.26-45.59,69.87-63.37,9.16-7.2,18.21-15.13,23.43-25.55,5.8-11.62,6.23-25.06,8.64-37.82,7.81-41.34,39.11-77.41,78.94-90.97,56.01-19.08,123.63-6.43,156.68,46.01,1.63,2.57,3.15,5.19,4.55,7.86,9.39,17.42,18.95,36.38,26.21,54.62,7.34,18.56,23.26,34.27,37.95,47.21,16.17,14.32,33.75,27.06,48.96,42.39,15.22,15.33,28.23,33.82,32.46,55,4.64,23.94-2.31,49-14.26,70.3Z" style="fill: rgb(104, 225, 253);"/><path class="cls-2_online-search-55 targetColor" d="M457.46,410.36c-2.96,1.8-6.03,3.42-9.13,4.96-19.22,9.61-39.43,17.08-60.75,19.94-22.23,3-44.81,1.68-66.98-1.06-29.83-3.67-59.37-9.94-89.36-11.7-21.63-1.29-43.33-.23-64.88,1.4-19.59,1.47-39.6,3.38-58.98.62l-4.82-62.62,245.3-57.63,109.61,106.1Z" style="fill: rgb(104, 225, 253);"/></g><g id="technology_online-search-55"><path class="cls-10_online-search-55" d="M99.89,338.06l151.37-68.83c3.29-1.8,7.16-2.2,10.75-1.13l86.47,11.74c4.9,1.48,3.67,21.64-.61,24.41l-140.6,89.88c-5.62,3.6-12.63,4.27-18.83,1.81l-85.88-34.08c-4.71-1.86-7.11-21.37-2.67-23.81Z"/><path class="cls-1_online-search-55" d="M99.89,338.06l151.37-68.83c3.29-1.8,7.16-2.2,10.75-1.13l86.47,11.74c4.9,1.48,3.67,21.64-.61,24.41l-140.6,89.88c-5.62,3.6-12.63,4.27-18.83,1.81l-85.88-34.08c-4.71-1.86-7.11-21.37-2.67-23.81Z"/><path class="cls-10_online-search-55" d="M101.93,336.33l149.34-81.83c3.29-1.8,7.16-2.2,10.75-1.13l84.35,25.34c3.17.95,4.97,4.3,4.02,7.47-.41,1.37-1.3,2.55-2.51,3.33l-140.6,89.9c-5.62,3.58-12.63,4.25-18.83,1.8l-85.88-34.07c-3.07-1.23-4.56-4.72-3.32-7.79.52-1.29,1.47-2.36,2.69-3.02Z"/><path class="cls-3_online-search-55 targetColor" d="M110.21,335.07l139.24-76.29c3.06-1.68,6.67-2.06,10.01-1.05l78.71,23.62c2.96.89,4.64,4.01,3.75,6.97-.39,1.28-1.22,2.39-2.35,3.11l-131.15,83.79c-5.24,3.35-11.76,3.98-17.54,1.69l-80.07-31.83c-2.85-1.18-4.19-4.45-3.01-7.3.48-1.15,1.33-2.1,2.41-2.71Z" style="fill: rgb(104, 225, 253);"/><polygon class="cls-10_online-search-55" points="231.09 274.22 249.66 263.93 326.2 293.41 305.66 304.86 231.09 274.22"/><polygon class="cls-10_online-search-55" points="206 289.19 224.57 278.9 301.11 308.39 280.57 319.84 206 289.19"/><polygon class="cls-10_online-search-55" points="180.9 304.17 199.47 293.89 276.03 323.36 255.49 334.81 180.9 304.17"/><polygon class="cls-10_online-search-55" points="155.81 319.14 174.39 308.86 250.93 338.35 230.39 349.79 155.81 319.14"/><polygon class="cls-10_online-search-55" points="130.73 334.12 149.3 323.84 225.84 353.32 205.3 364.76 130.73 334.12"/><path class="cls-10_online-search-55" d="M225.8,159.06v-50.94l61.01-26.78v50.94l-61.01,26.78ZM227.03,108.92v48.26l58.56-25.71v-48.26l-58.56,25.71Z"/><path class="cls-10_online-search-55" d="M279.27,118.28c-.04,1.44-.52,2.84-1.36,4.02-.81,1.22-1.95,2.17-3.29,2.74l-31.92,12.73c-2.57,1.03-4.65-.34-4.65-3.06.04-1.44.52-2.84,1.36-4.02.81-1.22,1.95-2.17,3.29-2.75l1.09-.43c-.23-.8-.34-1.62-.34-2.45.1-2.85,1.03-5.6,2.68-7.92,1.59-2.41,3.84-4.3,6.48-5.46l2.72-1.08c3.54-1.41,6.61-.51,8.14,1.97.71-.69,1.54-1.24,2.45-1.63l.7-.28c3.05-1.22,5.52.4,5.52,3.67v.29c0,.57-.07,1.14-.21,1.69l2.64-1.05c2.63-1.08,4.71.29,4.71,3.01Z"/><path class="cls-5_online-search-55 targetColor" d="M322.18,230.6c0,5.12-4.16,9.28-9.28,9.28-5.12,0-9.28-4.16-9.28-9.28,0-5.12,4.16-9.28,9.28-9.28,2.18,0,4.29.77,5.96,2.17,2.1,1.76,3.32,4.37,3.32,7.11Z" style="fill: rgb(104, 225, 253);"/><path class="cls-4_online-search-55" d="M319.38,226.57c0,5.12-4.13,9.27-9.25,9.28-2.19,0-4.3-.77-5.98-2.17-1.69-4.84.86-10.13,5.7-11.82,3.07-1.07,6.49-.46,8.99,1.62.36.99.54,2.03.54,3.08Z"/><path class="cls-5_online-search-55 targetColor" d="M311.5,200.49c0,2.56-2.08,4.64-4.64,4.64-2.56,0-4.64-2.08-4.64-4.64,0-2.56,2.08-4.64,4.64-4.64,0,0,0,0,.01,0,2.56,0,4.63,2.08,4.63,4.64Z" style="fill: rgb(104, 225, 253);"/><path class="cls-4_online-search-55" d="M310.11,198.48c0,2.56-2.09,4.63-4.65,4.63-1.08,0-2.13-.38-2.96-1.08-.81-2.44.51-5.07,2.94-5.88.46-.15.95-.23,1.44-.24,1.09,0,2.14.38,2.97,1.09.17.48.25.98.26,1.48Z"/><path class="cls-5_online-search-55 targetColor" d="M353.56,180.52c0,2.56-2.08,4.64-4.64,4.64-2.56,0-4.64-2.08-4.64-4.64,0-2.56,2.08-4.64,4.64-4.64,1.09,0,2.14.38,2.97,1.08,1.06.88,1.67,2.19,1.66,3.56Z" style="fill: rgb(104, 225, 253);"/><path class="cls-4_online-search-55" d="M352.15,178.5c0,2.56-2.08,4.64-4.64,4.64-1.09,0-2.14-.38-2.98-1.08-.85-2.42.42-5.07,2.84-5.92,1.54-.54,3.25-.23,4.51.81.18.5.27,1.02.27,1.54Z"/><g class="cls-13_online-search-55"><polygon class="cls-12_online-search-55 targetColor" points="321.44 227.8 320.47 227.44 329.9 200.98 310.53 200 310.58 198.98 331.33 200.02 321.44 227.8" style="fill: rgb(104, 225, 253);"/></g><polygon class="cls-12_online-search-55 targetColor" points="344.07 201 330.61 201 330.61 199.99 343.29 199.99 347.73 183.25 348.73 183.52 344.07 201" style="fill: rgb(104, 225, 253);"/></g><g id="character_online-search-55"><path class="cls-11_online-search-55" d="M215.56,298.64c-.06,1.7.38,3.67,1.86,4.49.73.38,1.54.56,2.36.53,1.89.04,3.76-.33,5.5-1.08,3.05-1.32,5.53-3.75,8.57-5.01.88-.27,1.7-.68,2.45-1.22.76-.57,1.04-1.57.69-2.45-.31-.53-.91-.82-1.3-1.22s-.56-1.22-1.09-1.59c-.91-.67-2.14,0-3.11.59-1.82,1.09-3.85,1.8-5.96,2.07-.29.06-.6.06-.89,0-1.13-.35-1.09-2.09-2.06-2.77-1.4-.94-5.03,1.05-6,2.22-1.09,1.29-.98,3.75-1.02,5.45Z"/><path class="cls-11_online-search-55" d="M153.12,179.81s-8.16,1.3-11.38,4.75c-3.22,3.45-20.67,31.24-20.67,31.24,0,0-6.55,6.9,0,9.14,6.55,2.24,8.45,1.54,8.79,0s1.03-3.97,1.03-3.97c0,0,.7-.34,1.55-2.07.56-1,.86-2.13.86-3.28-.15-.77-.38-1.52-.69-2.24l14.69-18.26,4.9-3.79.93-11.52Z"/><path class="cls-11_online-search-55" d="M207.34,166.63c.08.54.03,1.09-.15,1.6-.35.52-.8.97-1.33,1.31-1.18,1.22-2.24,2.55-3.16,3.98-1.08,1.33-2.72,2.45-4.37,2.07-.46-.17-.94-.29-1.43-.37-.99.09-1.86.7-2.28,1.6-.4.9-.95,1.73-1.63,2.45-1.44,1.22-3.56.65-5.32.07-1.02-.22-1.93-.79-2.57-1.6-.28-.56-.43-1.17-.43-1.8,0-1.49.09-2.99.09-4.47,0-4.79-1.47-9.6-.55-14.3,1.03-5.29,5.12-9.46,10.39-10.59,4.66-.69,9.28,1.45,11.76,5.45,2.53,3.94.76,10.05.98,14.59Z"/><path class="cls-11_online-search-55" d="M205.84,198.59s8.27,8.96,11.2,9.3,25.71-24.64,25.71-24.64c1.6-.19,2.95-1.28,3.49-2.8.51-1.46.68-3.02.51-4.57-.01-.45-.08-.89-.22-1.32-.32-.7-.8-1.31-1.4-1.8-.63-.65-1.36-1.19-2.17-1.6-.81-.43-1.78-.43-2.58,0-.52.38-.94.88-1.22,1.46-.88,1.51-1.77,3.32-1.05,4.9.16.26.27.55.31.86-.05.37-.23.71-.51.95-5.83,6.36-12.7,11.69-20.32,15.75-.23.14-.48.22-.75.24-.34-.03-.67-.17-.93-.39-1.64-1.14-3.24-2.31-4.84-3.51-2.2,2.02-3.98,4.46-5.23,7.17Z"/><path class="cls-12_online-search-55 targetColor" d="M180.19,176.4h0l-.84,1.57c-2.08,3.96-4.17,7.91-6.27,11.85-1.1,2.07-2.58,6.82-4.72,7.94-1,.44-2.11.56-3.18.33-3.18-.43-7.12-2.45-9.45-3.05-.81-.27-1.68-.36-2.53-.26-1.21.41-2.26,1.19-2.99,2.24-3.78,4.37-7.77,8.55-11.97,12.53-.83.88-1.81,1.61-2.89,2.17-2.36,1.05-4.9.33-7.34-.89-.97-.48-1.91-1.01-2.82-1.59-.56-.28-1.01-.74-1.3-1.3-.4-1.05.45-2.13,1.22-2.96,3.03-3.28,5.63-6.93,7.76-10.86,1.97-3.67,3.67-7.63,6.81-10.27,6.18-5.15,16.59-4.43,24.29-5.4,1.33-.17,8.45-.34,12.82-.98,1.76-.26,3.07-.59,3.39-1.02l.02-.06Z" style="fill: rgb(104, 225, 253);"/><path class="cls-8_online-search-55" d="M193.73,239.78s22.8,1.87,25.56,7.91c2.75,6.03,5.52,43.25,5.52,43.25l-12.94,4.36-2.93-32.92s-37-1.36-41.51-6.26c-2.79-3.12-4.72-6.92-5.61-11.02l31.9-5.32Z"/><path class="cls-8_online-search-55" d="M192.28,244.16s-2.97,33.33-6.77,36.1c-3.79,2.77-26.31,35.27-26.31,35.27l-11.98-6.66,18.66-35.16,2.36-27.15,24.04-2.4Z"/><path class="cls-12_online-search-55 targetColor" d="M201.53,189.52v.17c-.69,4.61-1.38,9.24-2.07,13.84l-.15.98c-1.11,7.42-2.22,14.83-3.32,22.24-.77,5.12-1.53,10.23-2.75,15.24-.13.79-.46,1.54-.95,2.18-.64.6-1.43,1-2.29,1.15-5.53,1.48-11.35,1.31-17.14,1.11-3.71.03-7.42-.41-11.02-1.31-1.38-.42-2.9-1.22-3.21-2.57-.08-.47-.08-.96,0-1.43.66-5.19,2.45-10.22,2.83-15.45.15-2.3,0-4.63.22-6.93.18-1.91.59-3.79.92-5.68.18-.98.34-1.96.44-2.95.21-2.07.16-4.15.49-6.21.36-1.97.91-3.9,1.63-5.77,0-.09,0-.16.09-.24,1.22-3.4,2.45-6.79,3.76-10.12.94-2.52,2.24-4.89,3.86-7.04.59-.73,1.25-1.39,1.98-1.98.6-.47,1.24-.88,1.92-1.22.86-.46,1.79-.78,2.75-.94.21-.04.42-.06.64-.07h0c1.39-.1,2.8-.03,4.17.21,3.84.5,9.4.58,13.26,2.72,1.57.8,2.83,2.09,3.6,3.67.73,2.06.85,4.28.34,6.4Z" style="fill: rgb(104, 225, 253);"/><path class="cls-12_online-search-55 targetColor" d="M241.67,186.13c.09,1.36-.98,2.45-1.98,3.43l-19.16,18.09c-.28.27-.58.54-.88.8-.52.47-1.12.85-1.77,1.11-.51.18-1.04.28-1.58.29-.87,0-1.73-.1-2.57-.29-5.13-1.01-10-3.08-14.29-6.07-6.12-4.47-9.57-11.1-6.02-19.92.29-.77.65-1.51,1.08-2.22.55-1.22,1.77-2.01,3.11-2.02,1.29.18,2.49.73,3.46,1.59,3.07,2.33,6.01,4.8,8.94,7.34.86.72,1.79,1.53,2.75,2.29,1.37,1.14,2.9,2.07,4.54,2.77.36.17.77.23,1.16.18.33-.1.63-.27.89-.5,5.43-4.17,10.87-8.31,16.32-12.42.45-.45,1.08-.68,1.71-.61.41.17.75.47.98.86l2.15,2.9c.27.34.51.7.72,1.08.24.4.39.85.43,1.32Z" style="fill: rgb(104, 225, 253);"/><path class="cls-6_online-search-55" d="M182.63,199.31c-1.06.51-1.96,1.32-2.6,2.31-1.76,2.56-3.04,5.68-5.48,7.69-3.26,2.66-7.88,2.63-11.96,3.76.18-.98.34-1.96.44-2.95.21-2.07.16-4.15.49-6.21.36-1.97.91-3.9,1.63-5.77-3.18-.43-7.12-2.45-9.45-3.05-.81-.27-1.68-.36-2.53-.26-1.21.41-2.26,1.19-2.99,2.24-3.78,4.37-7.77,8.55-11.97,12.53-.83.88-1.81,1.61-2.89,2.17-2.36,1.05-4.9.33-7.34-.89-.01-.07-.01-.15,0-.22.01-.41.18-.81.48-1.1,6.07-7.6,12.89-14.57,20.36-20.81,6.68-5.73,15.33-7.76,23.78-9.49l2.28-.45c1.49-.28,2.99-.54,4.49-.73,3.06-.47,6.18-.47,9.24,0,2.26.48,4.33,1.64,5.92,3.32,2.55,2.45,4.65,5.7,7.04,8.12l.65.64c5.21,4.62,10.73,8.86,16.54,12.71.4.34.9.54,1.42.55.43-.08.83-.29,1.15-.59,5.8-4.63,11.3-9.62,16.48-14.93.94-1.02,1.95-1.97,3.02-2.84.12-.1.25-.18.39-.24.24.4.39.85.43,1.32.09,1.36-.98,2.45-1.98,3.43l-19.13,18.09c-.28.27-.58.54-.88.8l-.2.1c-1.02.52-2.07.96-3.16,1.31-.87,0-1.73-.1-2.57-.29-5.13-1.01-10-3.08-14.29-6.07l-.15.98c-.22-.15-.44-.32-.64-.5-.78-.7-1.38-1.57-2.14-2.29-2.45-2.33-6.12-2.75-9.45-2.97-6.73-.43-6,5.95-6.9,11.31-1.03,6.13-1.76,12.3-2.19,18.51-.32,4.46-.48,9.01-2.03,13.2-.38,1.35-1.22,2.52-2.37,3.32-.85.42-1.78.64-2.73.65-3.08.19-6.17-.05-9.18-.71-1.18-.1-2.24-.77-2.84-1.79-.21-.69-.21-1.42,0-2.11l5.31-28.95"/><path class="cls-11_online-search-55" d="M146.27,312.68c-1.13,1.03-2.53,1.91-3.04,3.34-.24.79-.29,1.63-.12,2.45.49,2.97,2.36,5.52,4.16,7.94l2.08,2.78,3.46,4.64c.79,1.2,1.79,2.25,2.96,3.08,1.89.96,4.01,1.38,6.12,1.22.91.07,1.83-.05,2.69-.35.87-.33,1.44-1.17,1.42-2.11-.12-1.22-1.46-1.84-2.45-2.45-3.12-2.03-4.26-5.97-5.17-9.58-.62-2.45-1.22-5.13-.59-7.61.22-.84.59-1.65.77-2.51.21-.84.07-1.72-.4-2.45-.43-.49-.98-.86-1.59-1.08-1.85-.8-3.79-1.4-5.78-1.77-2.18-.6-3.13,3.16-4.54,4.46Z"/><path class="cls-9_online-search-55" d="M210.75,156.75c-1.85,2.58-5.06,4.02-6.6,6.78s-1.15,6.99-3.57,9.33c-.99.87-2.21,1.45-3.51,1.68-1.48.34-3.08.47-4.54.84-.96.18-1.82.69-2.45,1.43-.75,1.05,0,2.53.07,3.67.24,1.78.14,3.59-.27,5.34-.74,2.3-2.42,4.18-4.63,5.18-2.19.99-4.59,1.41-6.98,1.22-.53-.08-1.07,0-1.55.21-.58.5-.92,1.23-.92,2-.54,3.86-1.52,7.97-4.48,10.49-1.3,1.05-2.81,1.81-4.42,2.24-5.8,1.76-12.09.5-16.76-3.35-1.26-1.09-2.34-2.38-3.19-3.81-2.27-3.69-2.88-8.16-1.69-12.33,1.22-3.82,3.98-7.52,3.05-11.41-.34-1.41-1.15-2.66-1.58-4.04-.49-2.09-.51-4.26-.07-6.35.15-1.9.72-3.74,1.65-5.4,1.07-1.53,2.53-2.74,4.22-3.5,6.99-3.46,15.51-2.93,22.34-6.72,5.97-3.33,10.26-9.79,16.94-11.27,1.95-.44,3.97-.51,5.95-.21,1.95.33,3.04,1.68,4.82,2.25,1.08.17,2.17.26,3.27.26,1.7.4,3.18,1.46,4.1,2.95.89,1.24,1.56,2.63,1.96,4.1.9,2.84.47,5.93-1.16,8.42Z"/><path class="cls-7_online-search-55" d="M210.75,156.75c-1.85,2.58-5.06,4.02-6.6,6.78s-1.15,6.99-3.57,9.33c-.99.87-2.21,1.45-3.51,1.68-1.48.34-3.08.47-4.54.84-.96.18-1.82.69-2.45,1.43-.75,1.05,0,2.53.07,3.67.24,1.78.14,3.59-.27,5.34-.74,2.3-2.42,4.18-4.63,5.18-2.19.99-4.59,1.41-6.98,1.22-.53-.08-1.07,0-1.55.21-.58.5-.92,1.23-.92,2-.54,3.86-1.52,7.97-4.48,10.49-1.3,1.05-2.81,1.81-4.42,2.24-5.8,1.76-12.09.5-16.76-3.35-1.26-1.09-2.34-2.38-3.19-3.81,2.24,1.02,4.63,1.68,7.08,1.95,2.73.11,5.47-.3,8.04-1.22,2.93-.81,5.62-2.3,7.87-4.35,2.26-2.1,3.35-5.16,2.91-8.21,5.38-.51,9.57-4.92,9.79-10.32-2.01.43-4.06.68-6.12.75,5.76-1.9,10.88-5.37,14.76-10.04-.52.74-.91,1.57-1.15,2.45,2.32.4,4.68-.32,6.39-1.93,1.68-1.63,2.62-3.87,2.62-6.21-.06-.58.04-1.17.31-1.69.29-.34.67-.6,1.09-.76,3.55-1.76,6.55-4.45,8.7-7.77.78-1.5,1.68-2.94,2.69-4.3.89,2.84.45,5.93-1.19,8.41Z"/></g></svg>