<svg id="_0051_parachute" xmlns="http://www.w3.org/2000/svg" viewBox="0 0 500 500" data-imageid="parachute-40" imageName="Parachute" class="illustrations_image" style="width: 152px;"><defs><style>.cls-1_parachute-40{fill:#fff;}.cls-2_parachute-40{fill:#f4a28c;}.cls-3_parachute-40{opacity:.46;}.cls-3_parachute-40,.cls-4_parachute-40,.cls-5_parachute-40{fill:none;}.cls-6_parachute-40{fill:#e6e6e6;}.cls-4_parachute-40{opacity:.08;}.cls-5_parachute-40{opacity:.27;}.cls-7_parachute-40{fill:#24285b;}.cls-8_parachute-40{fill:#000001;}.cls-9_parachute-40{fill:#ffd200;}.cls-10_parachute-40{fill:#68e1fd;}</style></defs><g id="bg_parachute-40"><path class="cls-6_parachute-40" d="m420.55,93.32c0-8.25-6.69-14.94-14.94-14.94-.82,0-1.62.08-2.4.21-3.4-6.31-10.07-10.6-17.74-10.6-.25,0-.49.03-.74.04.46-1.86.74-3.79.74-5.79,0-13.2-10.7-23.91-23.91-23.91s-23.91,10.7-23.91,23.91c0,2,.27,3.94.74,5.79-.25,0-.49-.04-.74-.04-11.12,0-20.14,9.02-20.14,20.14s9.02,20.14,20.14,20.14h69.9v-.14c7.32-.95,12.99-7.21,12.99-14.8Z"/><g class="cls-5_parachute-40"><circle class="cls-6_parachute-40" cx="254.02" cy="266.7" r="199.69"/></g><path class="cls-6_parachute-40" d="m130.27,257.93c0-7.34-5.95-13.29-13.29-13.29-.73,0-1.44.07-2.13.19-3.02-5.61-8.95-9.43-15.78-9.43-.22,0-.44.03-.66.03.41-1.65.66-3.37.66-5.15,0-11.74-9.52-21.26-21.26-21.26s-21.26,9.52-21.26,21.26c0,1.78.24,3.5.66,5.15-.22,0-.43-.03-.66-.03-9.89,0-17.91,8.02-17.91,17.91s8.02,17.91,17.91,17.91h62.16v-.12c6.51-.85,11.56-6.41,11.56-13.16Z"/><path class="cls-6_parachute-40" d="m460.65,331.24c0-7.34-5.95-13.29-13.29-13.29-.73,0-1.44.07-2.13.19-3.02-5.61-8.95-9.43-15.78-9.43-.22,0-.44.03-.66.03.41-1.65.66-3.37.66-5.15,0-11.74-9.52-21.26-21.26-21.26s-21.26,9.52-21.26,21.26c0,1.78.24,3.5.66,5.15-.22,0-.43-.03-.66-.03-9.89,0-17.91,8.02-17.91,17.91s8.02,17.91,17.91,17.91h62.16v-.12c6.51-.85,11.56-6.41,11.56-13.16Z"/></g><g id="person_parachute-40"><rect class="cls-7_parachute-40" x="272.2" y="239.92" width="129.25" height="1.89" transform="translate(-71.28 310.98) rotate(-45.32)"/><rect class="cls-7_parachute-40" x="235.71" y="224.11" width="123.05" height="1.89" transform="translate(-25.85 411.09) rotate(-67.07)"/><rect class="cls-7_parachute-40" x="202.82" y="216.48" width="110.43" height="1.89" transform="translate(18.78 455.35) rotate(-84.96)"/><rect class="cls-7_parachute-40" x="211.11" y="162.07" width="1.89" height="115.76" transform="translate(-42.89 51.58) rotate(-12.6)"/><rect class="cls-7_parachute-40" x="163.9" y="154.7" width="1.89" height="126.16" transform="translate(-84.9 107.2) rotate(-29)"/><path class="cls-9_parachute-40" d="m180.41,267.15s-4.83-11.94,24.51-18.28c29.34-6.34,111.61-4.04,129.11,35.36,17.5,39.4,10.03,101.59-35.47,121.02-45.5,19.43-130.86,34.33-118.15-138.1Z"/><path class="cls-10_parachute-40 targetColor" d="m174.2,327.41c-12.07-28.06,6.64-59.91,37.06-62.66,28.3-2.56,66.45-.59,85.82,23.79,33.09,41.64-39.04,121.9-39.04,121.9l-73.21-1.33s6.81-26.68.75-52.41c-2.01-8.54-6.85-18.75-11.39-29.29Z" style="fill: rgb(13, 110, 253);"/><g class="cls-4_parachute-40"><path class="cls-8_parachute-40" d="m247.38,302.03s-12.77,24.52-5.04,47.14c7.72,22.61-38.15,58.03-38.15,58.03l35.17,9.38,18.68-6.13,21.9-28.84,25.82-25.54-6.36-24.69-52.02-29.34Z"/></g><path class="cls-1_parachute-40" d="m219.74,270.46s-8.65,13.6-.17,18.47c8.47,4.87,11.19-.68,11.19-.68,0,0,6.32,7.45,11.96,1.67,5.64-5.78,4.85-17.27-.9-22.57-5.76-5.3-22.07,3.11-22.07,3.11Z"/><path class="cls-2_parachute-40" d="m221.7,270.9c.37,2.51.67,5.03.75,7.56.11,3.48,1.23,8.65,6.71,9.66,8.46,1.57,10.71-11.82,10.71-11.82,0,0,5.33-12.54-3.84-14.26-8.25-1.55-16.03-2.66-14.35,8.86Z"/><path class="cls-2_parachute-40" d="m239.36,276.85s.48-4.07,4.03-3.89c3.54.17,2.15,7.77-4.03,3.89Z"/><path class="cls-2_parachute-40" d="m223.75,278.56s1.24-3.9-2.05-5.21c-3.3-1.31-5.18,6.18,2.05,5.21Z"/><path class="cls-7_parachute-40" d="m221.7,270.9s-13.71-1.97-7.58-12.05c6.13-10.08,7.49-2.53,10.38-10.34,2.9-7.82,5.5-9.32,9.75-5.98,4.25,3.34.13,10.33,6.55,8.37,6.42-1.96,10.8-3.8,12.02,1.52,1.22,5.32.03,7.86-4.13,9.69-4.16,1.83,2.36,8.98-8.04,11.9-10.39,2.92-15.8-8.44-15.8-8.44l-3.16,5.34Z"/><path class="cls-7_parachute-40" d="m183.52,349.17s34.54,23.98,107.84,1.43l5.87,6.94-5.71,7.87-5.53,6.24s-63.84,12.58-98.78-5.98c0,0-3.63-7.8-3.68-16.5Z"/><path class="cls-10_parachute-40 targetColor" d="m126.55,451.74s-3.37,4.3-7.91,3.21-7.12,2.84-3.53,5.28c3.59,2.44,15.51.73,15.51.73l1.82-6.46-5.9-2.76Z" style="fill: rgb(13, 110, 253);"/><path class="cls-10_parachute-40 targetColor" d="m204.29,462.22s-3.25,4.39-7.82,3.43c-4.56-.96-7.04,3.04-3.38,5.38,3.66,2.34,15.53.29,15.53.29l1.64-6.51-5.98-2.59Z" style="fill: rgb(13, 110, 253);"/><path class="cls-10_parachute-40 targetColor" d="m257.92,293.99c-.02-14.63,15.92-23.74,28.65-16.54,19.06,10.79,44.17,33.23,38.72,75.22-8.57,66.14-84.22,8.28-84.22,8.28l8.35-13.56s29.28,21.15,42.65,11.8c10.82-7.57-34.11-31.7-34.16-65.21Z" style="fill: rgb(13, 110, 253);"/><g class="cls-3_parachute-40"><path class="cls-1_parachute-40" d="m257.92,293.99c-.02-14.63,15.92-23.74,28.65-16.54,19.06,10.79,44.17,33.23,38.72,75.22-8.57,66.14-84.22,8.28-84.22,8.28l8.35-13.56s29.28,21.15,42.65,11.8c10.82-7.57-34.11-31.7-34.16-65.21Z"/></g><path class="cls-2_parachute-40" d="m248.5,348.91s-7.33-7.94-12.5-5.38-7.96,13.69,6.96,14.38l5.54-9Z"/><path class="cls-10_parachute-40 targetColor" d="m172.67,272.95s-63.32,28.73-59.25,77.53c4.07,48.8,60.58-.01,60.58-.01l-1.33-77.52Z" style="fill: rgb(13, 110, 253);"/><g class="cls-4_parachute-40"><path class="cls-8_parachute-40" d="m172.67,272.95s-63.32,28.73-59.25,77.53c4.07,48.8,60.58-.01,60.58-.01l-1.33-77.52Z"/></g><path class="cls-7_parachute-40" d="m266.73,268.93s-26.04,6.41-18.5,37.47c4.72,19.41,19.03,44,30.12,50.58,6.65,3.95,13.02-6.39,13.02-6.39,0,0-24.84-21.65-27.33-46.34-1.34-13.36,10.44-24.63,23.58-21.92,4.97,1.03,10.63,3.45,16.75,8.2,0,0-11.58-26.66-37.64-21.6Z"/><path class="cls-7_parachute-40" d="m209.67,264.94s-22.2-5.19-35.85,6.32-21.47,77.06,21.07,97.85c0,0-23.46-42.73-13.91-71.5,9.55-28.77,28.7-32.67,28.7-32.67Z"/><path class="cls-9_parachute-40" d="m211.11,33.09s130.16-21.36,178.35,22.53c40.34,36.74,53.33,96.7,34.34,140.68-5.67,13.12-21.54,18.39-34.08,11.53-38.54-21.09-133.05-59.22-267.99-23.46-8.96,2.37-17.9-3.84-18.88-13.06-3.96-37.06-.48-121.19,108.27-138.22Z"/><g class="cls-5_parachute-40"><path class="cls-1_parachute-40" d="m310.28,74.02c-11.49-7.48-5.17-25.31,8.47-23.92,22.37,2.29,46.15,7.47,57.09,18.84,23.61,24.54,42.28,62.84,28.43,72.34-13.85,9.5-44.34-28.87-64.99-46.47-7.23-6.16-18.02-13.65-29-20.8Z"/></g><path class="cls-7_parachute-40" d="m216.8,409.69l-31.5-6.22c-23.34-4.61-46.64,8.11-55.39,30.23l-7.22,18.27,11.9,4.11,9.14-15.98c6.83-11.94,20.95-17.67,34.17-13.86l32.59,9.38s44.81,8.43,47.55-25.18l-41.23-.75Z"/><path class="cls-7_parachute-40" d="m258.04,410.44l-12.49-7.52c-11.77-7.08-27.05-1.15-30.96,12.02l-14.04,47.34,13.11,4.64,17.24-43.24,27.15-13.23Z"/><path class="cls-2_parachute-40" d="m169.05,342.18s9.27-13.69,15.43-5.51c6.16,8.18-10.49,13.81-10.49,13.81l-4.95-8.3Z"/></g></svg>