<svg id="_0079_presentation_1" xmlns="http://www.w3.org/2000/svg" viewBox="0 0 500 500" data-imageid="presentation-6-82" imageName="Presentation 6" class="illustrations_image" style="width: 157px;"><defs><style>.cls-1_presentation-6-82,.cls-2_presentation-6-82,.cls-3_presentation-6-82{fill:#fff;}.cls-4_presentation-6-82{fill:#f4a28c;}.cls-5_presentation-6-82,.cls-6_presentation-6-82,.cls-7_presentation-6-82{fill:#a5a5a5;}.cls-8_presentation-6-82{opacity:.27;}.cls-8_presentation-6-82,.cls-9_presentation-6-82{fill:#e6e6e6;}.cls-10_presentation-6-82{opacity:.03;}.cls-10_presentation-6-82,.cls-11_presentation-6-82{fill:#000001;}.cls-6_presentation-6-82{opacity:.39;}.cls-7_presentation-6-82{opacity:.13;}.cls-12_presentation-6-82{fill:#ce8172;opacity:.31;}.cls-13_presentation-6-82,.cls-14_presentation-6-82,.cls-15_presentation-6-82{fill:#68e1fd;}.cls-13_presentation-6-82,.cls-3_presentation-6-82{opacity:.58;}.cls-2_presentation-6-82{opacity:.46;}.cls-16_presentation-6-82{fill:#24285b;}.cls-11_presentation-6-82{opacity:.08;}.cls-14_presentation-6-82{opacity:.73;}.cls-17_presentation-6-82{fill:#ffd200;}</style></defs><path id="bg_presentation-6-82" class="cls-8_presentation-6-82" d="m115.28,72.6C21.62,109.98,26.34,168.41,23.3,237.15c-2.25,50.95,25.09,131.02,84.13,139.48,127.65,18.28,369.04,57.21,369.4-120.54.18-88.31-45.89-309.47-361.55-183.49Z"/><ellipse id="sd_presentation-6-82" class="cls-10_presentation-6-82" cx="264.3" cy="446.92" rx="198.34" ry="18.38"/><g id="plant_presentation-6-82"><path class="cls-13_presentation-6-82 targetColor" d="m268.61,429.39s-15.28-4.17-18.61-18.4c0,0,23.68-4.79,24.36,19.66l-5.75-1.26Z" style="fill: rgb(13, 110, 253);"/><path class="cls-14_presentation-6-82 targetColor" d="m270.48,427.87s-10.68-16.88-1.28-32.67c0,0,18.01,11.44,10.01,32.7l-8.73-.04Z" style="fill: rgb(13, 110, 253);"/><path class="cls-15_presentation-6-82 targetColor" d="m273.24,427.88s5.64-17.83,22.7-21.21c0,0,3.2,11.58-11.04,21.26l-11.65-.05Z" style="fill: rgb(13, 110, 253);"/><polygon class="cls-16_presentation-6-82" points="262.15 427.48 265.25 448.68 284.76 448.76 287.64 427.59 262.15 427.48"/></g><g id="board_presentation-6-82"><polygon class="cls-5_presentation-6-82" points="324.36 448.94 316.85 443.36 349.66 399.2 349.66 323.16 359.02 323.16 359.02 402.29 324.36 448.94"/><rect class="cls-5_presentation-6-82" x="365.11" y="392.51" width="9.35" height="59.29" transform="translate(-177.14 296.35) rotate(-35.83)"/><rect class="cls-9_presentation-6-82" x="273.46" y="97.23" width="161.76" height="228.76"/><rect class="cls-5_presentation-6-82" x="273.46" y="312.47" width="161.76" height="30.74"/><circle class="cls-1_presentation-6-82" cx="354.34" cy="176.78" r="51.83"/><path class="cls-17_presentation-6-82" d="m354.34,124.95v51.83l50.81-10.27s-8.12-45.18-50.81-41.56Z"/><path class="cls-16_presentation-6-82" d="m354.34,176.78l44.11,27.24s13.52-19.56,6.71-37.51l-50.81,10.27Z"/><rect class="cls-6_presentation-6-82" x="316.96" y="248.76" width="74.76" height="15.79"/><rect class="cls-7_presentation-6-82" x="316.96" y="274.81" width="74.76" height="15.79"/><path class="cls-11_presentation-6-82" d="m367.97,250.94s21.69,6.2,6.05,24.63c-15.64,18.44-71.51,67.63-71.51,67.63h-29.04v-37.61l94.51-54.65Z"/></g><g id="person_presentation-6-82"><path class="cls-15_presentation-6-82 targetColor" d="m203.61,178.03s28.67,10.2,38.15,38.32,9.01,74.58,51.2,62.73c42.19-11.85,56.89-24.18,56.89-24.18l8.53,12.33s-98.11,104.76-154.77,11.85c-56.66-92.91,0-101.05,0-101.05Z" style="fill: rgb(13, 110, 253);"/><path class="cls-2_presentation-6-82" d="m203.61,178.03s28.67,10.2,38.15,38.32,9.01,74.58,51.2,62.73c42.19-11.85,56.89-24.18,56.89-24.18l8.53,12.33s-98.11,104.76-154.77,11.85c-56.66-92.91,0-101.05,0-101.05Z"/><path class="cls-4_presentation-6-82" d="m175.68,134.98s.46,9.96-1.48,16.48c-.79,2.65-3.62,4.18-6.25,3.35-3.27-1.02-7.4-3.36-8.29-8.66l-2.62-8.82s-1.45-5.58,4.33-9.39c5.78-3.81,14.35.96,14.32,7.03Z"/><polygon class="cls-4_presentation-6-82" points="157.71 141.84 154.01 174.28 172.04 175.04 167.49 151.13 157.71 141.84"/><path class="cls-16_presentation-6-82" d="m173.19,135.29c-1.74.02-4.93-.12-9.15-1.08,0,0,2.93,4.46-.37,9.11-1.32,1.86-2.91,2.61-4.34,2.84-2.07.33-3.88-1.44-3.77-3.53l.52-9.73c.08-3.73,2.19-7.13,5.51-8.83,1.36-.69,2.86-1.38,4.36-1.91,3.74-1.33,9.04,1.35,12.44-1,1.49-1.03,3.55-.07,3.74,1.73.42,3.91-.53,10.01-5.88,11.92-.98.35-2.02.47-3.06.49Z"/><path class="cls-4_presentation-6-82" d="m164.75,143.07s.08-3.84-2.81-3.66c-2.89.18-3.05,5.72.85,6.4l1.96-2.74Z"/><path class="cls-4_presentation-6-82" d="m175.64,141.27l2.62,3.95c.65.98.06,2.29-1.1,2.46l-3.84.56,2.32-6.97Z"/><path class="cls-12_presentation-6-82" d="m167.25,151.91s-3.39.16-6.51-1.93c0,0,.26,6.03,8.07,10.13l-1.56-8.19Z"/><path class="cls-15_presentation-6-82 targetColor" d="m136.16,433.07s-1.49,5.72-6.46,6.6c-4.97.88-5.84,5.89-1.22,6.76,4.62.87,15.7-5.97,15.7-5.97l-.98-7.19-7.04-.19Z" style="fill: rgb(13, 110, 253);"/><path class="cls-15_presentation-6-82 targetColor" d="m216.69,433.07s1.49,5.72,6.46,6.6c4.97.88,5.84,5.89,1.22,6.76-4.62.87-15.7-5.97-15.7-5.97l.98-7.19,7.04-.19Z" style="fill: rgb(13, 110, 253);"/><path class="cls-15_presentation-6-82 targetColor" d="m232.89,224.66c.63-25.98-19.03-48-44.83-51.04-24.35-2.87-68.46-6.38-85.44,3.14-23.99,13.46,16.31,138.35,16.31,138.35h82.05s30.89-49.14,31.9-90.45Z" style="fill: rgb(13, 110, 253);"/><path class="cls-11_presentation-6-82" d="m125.5,187.57s18.49,5.11,13.51,34.27h24.02l.4,31.91c.32,25.7,14.64,49.18,37.34,61.24l.22.12h-82.05l-3.21-10.43,9.77-117.11Z"/><path class="cls-15_presentation-6-82 targetColor" d="m128.49,201.1c1.72-17.33-16.29-29.74-31.88-21.97-16.97,8.45-34.82,25.29-39.26,58.83-7.9,59.69,8.53,76.19,39.35,58.65,20.19-11.49,28.48-62.04,31.79-95.52Z" style="fill: rgb(13, 110, 253);"/><path class="cls-2_presentation-6-82" d="m128.49,201.1c1.72-17.33-16.29-29.74-31.88-21.97-16.97,8.45-34.82,25.29-39.26,58.83-7.9,59.69,8.53,76.19,39.35,58.65,20.19-11.49,28.48-62.04,31.79-95.52Z"/><rect class="cls-17_presentation-6-82" x="73" y="212.24" width="74.43" height="92.44"/><path class="cls-4_presentation-6-82" d="m96.7,212.24s5.21-11.6,15.64-7.22c10.43,4.38,3.32,18.12-15.64,7.22Z"/><rect class="cls-3_presentation-6-82" x="85.32" y="227.88" width="46.93" height="34.13"/><rect class="cls-1_presentation-6-82" x="85.32" y="273.08" width="46.93" height="12"/><path class="cls-16_presentation-6-82" d="m118.93,315.11l13.32,118.27h15.17s-3.97-89.36,18.87-103.82c22.84-14.45,34.69-14.45,34.69-14.45h-82.05Z"/><path class="cls-16_presentation-6-82" d="m200.99,315.11l20.38,118.27h-14.22s-17.54-87.94-59.73-101.68c0,0,25.12-13.74,53.57-16.59Z"/><path class="cls-4_presentation-6-82" d="m349.84,254.9s11.85-13.27,18.96-9.95c7.11,3.32-7.58,9.95-7.58,9.95,0,0,12.33,5.69-2.84,12.33l-8.53-12.33Z"/><polygon class="cls-9_presentation-6-82" points="125.22 131.15 125.22 118.66 70.02 118.66 70.02 154.65 125.22 154.65 125.22 141.8 142.02 136.65 125.22 131.15"/><circle class="cls-6_presentation-6-82" cx="83.48" cy="136.43" r="3.93"/><circle class="cls-6_presentation-6-82" cx="96.78" cy="136.43" r="3.93"/><circle class="cls-6_presentation-6-82" cx="110.08" cy="136.43" r="3.93"/></g></svg>