<svg width="375" height="355" viewBox="0 0 375 355" fill="none" xmlns="http://www.w3.org/2000/svg">
<circle opacity="0.24" cx="168.06" cy="187.06" r="167.5" fill="#E6E6E6"/>
<path d="M223.16 172.22L202.518 151.879L131.281 224.169L151.922 244.51L223.16 172.22Z" fill="#24285B"/>
<path d="M223.16 172.22L202.518 151.879L131.281 224.169L151.922 244.51L223.16 172.22Z" fill="#B3D2FF"/>
<path d="M183.563 216.824L159.875 193.482C157.04 190.688 152.477 190.721 149.683 193.556L80.0588 264.208C77.2648 267.044 77.2983 271.607 80.1336 274.401L103.821 297.744C106.656 300.538 111.219 300.504 114.013 297.669L183.637 227.017C186.431 224.181 186.398 219.618 183.563 216.824Z" fill="#24285B"/>
<path d="M344.001 29.7847C303.093 -10.3425 237.25 -9.86154 196.929 30.8497C156.608 71.5609 157.091 137.088 197.999 177.215C238.907 217.342 304.75 216.862 345.071 176.15C385.392 135.439 384.909 69.9118 344.001 29.7847ZM216.479 158.56C185.928 128.591 185.559 79.6459 215.674 49.2413C245.788 18.8367 294.969 18.4703 325.521 48.4397C356.072 78.4091 356.441 127.354 326.326 157.759C296.212 188.163 247.031 188.53 216.479 158.56Z" fill="#0D6EFD"/>
</svg>
