<svg id="_0513_smart_phone_data" xmlns="http://www.w3.org/2000/svg" viewBox="0 0 500 500" data-imageid="smartphone-data-29" imageName="Smartphone Data" class="illustrations_image" style="width: 157px;"><defs><style>.cls-1_smartphone-data-29,.cls-2_smartphone-data-29,.cls-3_smartphone-data-29{fill:#fff;}.cls-4_smartphone-data-29{fill:#f4a28c;}.cls-5_smartphone-data-29{fill:#a5a5a5;}.cls-6_smartphone-data-29{opacity:.03;}.cls-6_smartphone-data-29,.cls-7_smartphone-data-29,.cls-8_smartphone-data-29{fill:#000001;}.cls-2_smartphone-data-29{opacity:.3;}.cls-9_smartphone-data-29{fill:#e6e6e6;}.cls-7_smartphone-data-29{opacity:.12;}.cls-3_smartphone-data-29{opacity:.29;}.cls-10_smartphone-data-29{fill:#ce8172;opacity:.31;}.cls-11_smartphone-data-29{opacity:.58;}.cls-11_smartphone-data-29,.cls-12_smartphone-data-29,.cls-13_smartphone-data-29{fill:#68e1fd;}.cls-14_smartphone-data-29{fill:#24285b;}.cls-8_smartphone-data-29{opacity:.08;}.cls-12_smartphone-data-29{opacity:.73;}.cls-15_smartphone-data-29{fill:#ffd200;}</style></defs><ellipse id="sd_smartphone-data-29" class="cls-6_smartphone-data-29" cx="265.48" cy="454.96" rx="220.71" ry="29.93"/><g id="plant_smartphone-data-29"><path class="cls-11_smartphone-data-29 targetColor" d="m429.43,424.79s-19.65-5.37-23.92-23.65c0,0,30.45-6.15,31.31,25.27l-7.39-1.62Z" style="fill: rgb(13, 110, 253);"/><path class="cls-12_smartphone-data-29 targetColor" d="m431.84,422.84s-13.73-21.7-1.65-42c0,0,23.15,14.7,12.86,42.04l-11.22-.05Z" style="fill: rgb(13, 110, 253);"/><path class="cls-13_smartphone-data-29 targetColor" d="m435.38,422.86s7.25-22.92,29.18-27.26c0,0,4.11,14.88-14.2,27.32l-14.98-.06Z" style="fill: rgb(13, 110, 253);"/><polygon class="cls-14_smartphone-data-29" points="421.13 422.34 425.11 449.59 450.2 449.7 453.9 422.48 421.13 422.34"/></g><g id="phone_smartphone-data-29"><rect class="cls-9_smartphone-data-29" x="151.82" y="15.12" width="243.63" height="436.95"/><rect class="cls-1_smartphone-data-29" x="171.98" y="64.93" width="201.66" height="307.51"/><circle class="cls-5_smartphone-data-29" cx="274.37" cy="411.81" r="23.84"/><rect class="cls-7_smartphone-data-29" x="253.02" y="32.2" width="68.31" height="9.96"/><circle class="cls-1_smartphone-data-29" cx="228.28" cy="38.26" r="11.12"/><rect class="cls-14_smartphone-data-29" x="215.78" y="308.6" width="114.52" height="41.73"/><rect class="cls-13_smartphone-data-29 targetColor" x="226.79" y="323.87" width="68.03" height="12.85" style="fill: rgb(13, 110, 253);"/><rect class="cls-1_smartphone-data-29" x="274.6" y="323.87" width="20.22" height="12.85"/><rect class="cls-15_smartphone-data-29" x="303.13" y="320.94" width="15.02" height="18.99"/><rect class="cls-15_smartphone-data-29" x="301.64" y="318.6" width="18" height="3.69"/><rect class="cls-15_smartphone-data-29" x="308.69" y="316.16" width="3.83" height="3.15"/><rect class="cls-8_smartphone-data-29" x="303.13" y="322.29" width="15.02" height="2.3"/></g><g id="person_smartphone-data-29"><path class="cls-13_smartphone-data-29 targetColor" d="m75.21,444.8s-3.57,4.35-1.47,8.67c2.1,4.32-1.27,7.79-4.52,4.72-3.25-3.07-4.19-15.43-4.19-15.43l6.09-3.27,4.09,5.32Z" style="fill: rgb(13, 110, 253);"/><path class="cls-13_smartphone-data-29 targetColor" d="m112.08,233.12s25.28-.3,35.23,23.58c9.95,23.88,10.94,62.02,10.94,62.02l45.8-29.82-51.71,50.17-20.62-26.32-19.64-79.63Z" style="fill: rgb(13, 110, 253);"/><path class="cls-2_smartphone-data-29" d="m112.08,233.12s25.28-.3,35.23,23.58c9.95,23.88,10.94,62.02,10.94,62.02l45.8-29.82-51.71,50.17-20.62-26.32-19.64-79.63Z"/><path class="cls-13_smartphone-data-29 targetColor" d="m179.46,413s2.18,5.19,6.98,5.35c4.8.16,6.29,4.76,2.06,6.2-4.23,1.44-15.6-3.51-15.6-3.51l-.05-6.91,6.61-1.13Z" style="fill: rgb(13, 110, 253);"/><path class="cls-4_smartphone-data-29" d="m77.35,193.34s5.89,8.61,7.76,15.5c.76,2.79-.92,5.71-3.72,6.43-3.48.89-8.44,1.09-12.16-3.15l-7.19-6.41s-4.36-4.17-1.32-10.75c3.05-6.57,13.3-7.05,16.63-1.62Z"/><polygon class="cls-4_smartphone-data-29" points="65.28 205.47 70.04 233.85 89.3 234.74 78.1 212.56 65.28 205.47"/><path class="cls-4_smartphone-data-29" d="m80.78,198.96l4.5,2.08c1.11.51,1.31,2.01.38,2.8l-3.11,2.61-1.77-7.48Z"/><path class="cls-10_smartphone-data-29" d="m79.77,215.9s-4.04.28-6.67-1.41c0,0,.55,7.47,9.88,7.76l-3.21-6.35Z"/><path class="cls-13_smartphone-data-29 targetColor" d="m31.82,256.01c22.3-28.83,73.46-31.93,97.58-15.36,23.78,16.34,12.36,112.97,12.36,112.97l-57.33,15.8S-.65,304.94,31.82,256.01Z" style="fill: rgb(13, 110, 253);"/><path class="cls-14_smartphone-data-29" d="m84.43,369.43l7.18,17.33c1.91,10.23-.64,20.78-7.01,29.01l-17.86,23.06,9.87,7.07,25.95-20.65c10.75-8.56,17.05-21.54,17.11-35.28l.04-8.88,9.61-22.97-44.89,11.32Z"/><path class="cls-8_smartphone-data-29" d="m57.95,247.77s27.53,11.08,25.03,39.4c-2.5,28.32,5.9,45.84,50.19,44.15l-7.09,26.53-41.65,11.57h0c-14.04-13.72-26.33-29.12-36.6-45.85l-2.69-4.38,13.03-37.52-.21-33.91Z"/><path class="cls-14_smartphone-data-29" d="m84.43,369.43l26.77,19.44,35.4-10.96c7.29-2.26,14.97,2.1,16.77,9.52l6.55,26.97,12-1.01-3.88-36.43c-1.45-13.58-12.82-23.94-26.48-24.13h0c-18-.24-35.86,3.28-52.42,10.34l-14.71,6.27Z"/><rect class="cls-14_smartphone-data-29" x="178.47" y="239.97" width="25.21" height="88.29" transform="translate(254.41 -52.37) rotate(44.58)"/><rect class="cls-3_smartphone-data-29" x="178.47" y="239.97" width="25.21" height="88.29" transform="translate(254.41 -52.37) rotate(44.58)"/><path class="cls-14_smartphone-data-29" d="m67.06,211.42l-2.88-1.11c-3.84-1.48-8.02-1.51-12-.47-2.6.68-5.53.43-6.85-3.27-2.65-7.41,5.1-7.79,5.1-7.79,0,0-4.16-3.4-2.08-8.88,2.08-5.48,9.64-1.13,9.64-1.13,0,0-2.83-6.43,1.51-8.69s8.5,4.16,8.5,4.16c0,0,.04-7.18,5.41-5.29,5.37,1.89,7.53,3.97,6.07,9.07-1.46,5.1-13.25,10.6-13.25,10.6,0,0,11.79,5.25.83,12.82Z"/><rect class="cls-14_smartphone-data-29" x="130.87" y="275.94" width="41.47" height="98.83" rx="6.27" ry="6.27" transform="translate(272 -12.79) rotate(44.58)"/><path class="cls-15_smartphone-data-29" d="m336.2,137.32c-35.55-35.04-92.77-34.62-127.81.93-35.04,35.55-34.62,92.77.93,127.81,35.55,35.04,92.77,34.62,127.81-.93,35.04-35.55,34.62-92.77-.93-127.81Zm-110.82,112.45c-26.55-26.17-26.87-68.91-.7-95.46,26.17-26.55,68.91-26.87,95.46-.7,26.55,26.17,26.87,68.91.7,95.46-26.17,26.55-68.91,26.87-95.46.7Z"/><path class="cls-13_smartphone-data-29 targetColor" d="m61.71,249.94c-7.89-5.93-19.07-4.55-25.9,2.58-15.36,16.04-34.23,61.95-11.38,92.15,28.61,37.81,67.76,24.62,118.82,9.02l-2.39-12.15s-95.23,12.81-84.81-28.28c8.25-32.53,19.54-52.89,5.67-63.32Z" style="fill: rgb(13, 110, 253);"/><path class="cls-2_smartphone-data-29" d="m61.71,249.94c-7.89-5.93-19.07-4.55-25.9,2.58-15.36,16.04-34.23,61.95-11.38,92.15,28.61,37.81,67.76,24.62,118.82,9.02l-2.39-12.15s-95.23,12.81-84.81-28.28c8.25-32.53,19.54-52.89,5.67-63.32Z"/><path class="cls-4_smartphone-data-29" d="m141.73,345.99s15.92-7.83,16.34,0-14.82,7.7-14.82,7.7l-1.52-7.7Z"/><path class="cls-4_smartphone-data-29" d="m186.71,319.27s13.87-4.38,10.52-10.67c-3.35-6.29-11.25-2.92-10.52,10.67Z"/><path class="cls-4_smartphone-data-29" d="m71.78,203.21s-3.74-3.17-5.9-.16c-2.15,3.01,3.23,7.63,7.03,4.31l-1.14-4.15Z"/><path class="cls-13_smartphone-data-29 targetColor" d="m288.9,174.72c-3.98,0-7.63,1.26-10.84,3.75-3.08,2.38-5.13,5.42-6.34,7.63-1.21-2.21-3.26-5.24-6.34-7.63-3.22-2.49-6.86-3.75-10.84-3.75-11.1,0-19.48,9.08-19.48,21.13,0,13.01,10.45,21.91,26.26,35.39,2.69,2.29,5.73,4.88,8.89,7.65.42.37.95.57,1.51.57s1.09-.2,1.51-.57c3.16-2.77,6.21-5.36,8.89-7.65,15.81-13.47,26.26-22.38,26.26-35.39,0-12.04-8.37-21.13-19.48-21.13Z" style="fill: rgb(13, 110, 253);"/></g></svg>