<svg version="1.1" id="Layer_1" xmlns="http://www.w3.org/2000/svg" xmlns:xlink="http://www.w3.org/1999/xlink" x="0px" y="0px" viewBox="0 0 500 500" style="width: 150px;" xml:space="preserve" data-imageid="team-success-5-66" imageName="Team Success 5" class="illustrations_image">
<style type="text/css">
	.st0_team-success-5-66{fill:#FFFFFF;}
	.st1_team-success-5-66{fill:#231F20;}
	.st2_team-success-5-66{fill:#68E1FD;}
</style>
<g id="Character_Female_team-success-5-66">
	<polygon class="st0_team-success-5-66" points="93,249.3 127.9,269.6 110.4,300.3 75.1,279.8 &#9;"/>
	<path class="st1_team-success-5-66" d="M110.4,301c-0.1,0-0.3,0-0.4-0.1l-35.3-20.5c-0.3-0.2-0.5-0.6-0.3-1c0,0,0,0,0,0l17.9-30.5&#10;&#9;&#9;c0.2-0.3,0.7-0.5,1-0.3c0,0,0,0,0,0l35,20.3c0.3,0.2,0.5,0.6,0.3,1c0,0,0,0,0,0l-17.5,30.6c-0.1,0.2-0.3,0.3-0.4,0.3&#10;&#9;&#9;C110.6,301,110.6,301,110.4,301L110.4,301z M76.1,279.5l34.1,19.8l16.8-29.4l-33.7-19.6L76.1,279.5z"/>
	<path class="st1_team-success-5-66" d="M127.8,398.5c-1.8,3.1-3.2,6.5-4.3,9.9c-1.5,4.9,1.5,11.9,3.6,13.7c2.3,1.8,5.4,1.7,7.7-0.1&#10;&#9;&#9;c2.3-2-0.1-21.2-0.1-21.2L127.8,398.5z"/>
	<path class="st1_team-success-5-66" d="M130.6,424.1c-1.5,0-3-0.5-4.1-1.5c-2.2-2-5.3-9.4-3.8-14.5c1.1-3.5,2.6-6.9,4.4-10.1c0.2-0.3,0.5-0.4,0.8-0.3&#10;&#9;&#9;l6.8,2.4c0.2,0.1,0.4,0.3,0.5,0.6c0.6,4.6,2.2,19.7-0.2,21.8C133.8,423.6,132.2,424.2,130.6,424.1L130.6,424.1z M128.1,399.3&#10;&#9;&#9;c-1.6,3-3,6.1-4,9.3c-1.4,4.5,1.4,11.2,3.3,13s5.1,1.3,6.7-0.1c1.2-1.1,0.9-11-0.2-20.2L128.1,399.3L128.1,399.3z"/>
	<path class="st0_team-success-5-66" d="M150.1,328.4c-6.6,8.6-11.5,18.4-14.4,28.9c-4.5,16.8-6.8,39.9-7.1,40.7s-4.5,8.1-1.5,9.5s5.9,2.2,7.5-6.7&#10;&#9;&#9;c0,0,30.6-60.9,31.7-68.2S150.1,328.4,150.1,328.4L150.1,328.4z"/>
	<path class="st1_team-success-5-66" d="M129.9,409.1c-1.1-0.1-2.2-0.4-3.2-0.9c-0.6-0.3-1.1-0.8-1.3-1.4c-0.7-2,0.6-5.3,2.1-8.3&#10;&#9;&#9;c0.2-0.3,0.3-0.6,0.3-0.7s0.2-1.5,0.4-3c0.9-7.3,3.1-24.3,6.7-37.7c3-10.6,7.9-20.5,14.6-29.2c0.1-0.1,0.3-0.2,0.4-0.2&#10;&#9;&#9;c0.5-0.1,12.3-2.1,15.9,1.5c0.9,0.9,1.3,2.3,1.1,3.6c-1.2,7.2-30,64.7-31.8,68.3c-0.8,4.3-1.9,6.8-3.7,7.6&#10;&#9;&#9;C131.1,409,130.5,409.1,129.9,409.1L129.9,409.1z M150.5,329c-6.5,8.5-11.3,18.1-14.1,28.4c-3.5,13.2-5.7,30.2-6.6,37.5&#10;&#9;&#9;c-0.3,2.6-0.4,3.1-0.5,3.3s-0.2,0.4-0.4,0.9c-0.7,1.5-2.6,5.5-2,7.2c0.1,0.3,0.3,0.5,0.5,0.6c1.5,0.7,2.6,1,3.5,0.5&#10;&#9;&#9;c1.3-0.7,2.3-2.9,2.9-6.7c0-0.1,0-0.1,0.1-0.2c0.3-0.6,30.5-60.9,31.7-68c0.2-0.8-0.1-1.7-0.7-2.3&#10;&#9;&#9;C162.4,327.7,153.9,328.5,150.5,329L150.5,329z"/>
	<path class="st1_team-success-5-66" d="M248.1,398.5c1.8,3.1,3.2,6.5,4.3,9.9c1.5,4.9-1.5,11.9-3.6,13.7c-2.3,1.8-5.4,1.7-7.7-0.1&#10;&#9;&#9;c-2.3-2,0.1-21.2,0.1-21.2L248.1,398.5z"/>
	<path class="st1_team-success-5-66" d="M245.2,424.1c-1.6,0-3.2-0.5-4.5-1.5c-2.4-2.1-0.7-17.2-0.2-21.8c0-0.3,0.2-0.5,0.5-0.6l6.8-2.4&#10;&#9;&#9;c0.3-0.1,0.6,0,0.8,0.3c1.8,3.2,3.3,6.6,4.4,10.1c1.6,5.1-1.5,12.4-3.8,14.5C248.2,423.6,246.7,424.2,245.2,424.1L245.2,424.1z&#10;&#9;&#9; M241.9,401.4c-1.1,9.1-1.5,19.1-0.2,20.2c1.6,1.4,4.9,1.7,6.7,0.1s4.7-8.5,3.4-13c-1-3.2-2.4-6.3-4-9.3L241.9,401.4L241.9,401.4z"/>
	<path class="st0_team-success-5-66" d="M225.7,328.4c6.6,8.6,11.5,18.4,14.4,28.9c4.5,16.8,6.8,39.9,7.1,40.7s4.5,8.1,1.5,9.5s-5.9,2.2-7.5-6.7&#10;&#9;&#9;c0,0-30.6-60.9-31.7-68.2S225.7,328.4,225.7,328.4L225.7,328.4z"/>
	<path class="st1_team-success-5-66" d="M245.9,409.1c-0.6,0-1.1-0.1-1.6-0.4c-1.7-0.9-2.9-3.3-3.7-7.6c-1.8-3.6-30.6-61.1-31.8-68.3&#10;&#9;&#9;c-0.3-1.3,0.1-2.6,1.1-3.6c3.7-3.6,15.4-1.6,15.9-1.5c0.2,0,0.3,0.1,0.4,0.2c6.7,8.7,11.6,18.6,14.6,29.2&#10;&#9;&#9;c3.6,13.4,5.7,30.4,6.7,37.7c0.2,1.5,0.4,2.9,0.4,3s0.1,0.3,0.3,0.7c1.4,3,2.8,6.3,2.1,8.3c-0.2,0.6-0.7,1.1-1.3,1.4&#10;&#9;&#9;C248.1,408.7,247,409,245.9,409.1L245.9,409.1z M218.4,328.5c-3.1,0-6.1,0.4-7.5,1.8c-0.6,0.6-0.9,1.5-0.7,2.3&#10;&#9;&#9;c1.1,7.1,31.4,67.4,31.7,68c0,0.1,0.1,0.1,0.1,0.2c0.7,3.8,1.7,6.1,2.9,6.7c0.9,0.5,2,0.1,3.5-0.5c0.2-0.1,0.4-0.3,0.5-0.6&#10;&#9;&#9;c0.6-1.7-1.3-5.7-2-7.2c-0.2-0.4-0.4-0.7-0.4-0.9s-0.1-0.7-0.5-3.3c-0.9-7.2-3.1-24.2-6.6-37.5c-2.9-10.3-7.7-19.9-14.1-28.4&#10;&#9;&#9;C223,328.7,220.7,328.5,218.4,328.5L218.4,328.5z"/>
	<path class="st1_team-success-5-66" d="M160.4,247.4c0,0.8-11,57.3-13.1,82.5c0,0,43.1,22.6,82.5-1.6c0,0-8.9-36.3-9.2-44.7s-4.5-30.5-10.6-39.7&#10;&#9;&#9;L160.4,247.4L160.4,247.4z"/>
	<path class="st1_team-success-5-66" d="M189.3,340.2c-14.7-0.1-29.1-3.4-42.4-9.6c-0.2-0.1-0.4-0.4-0.4-0.7c1.7-20.4,9.2-61.2,12.1-76.6&#10;&#9;&#9;c0.6-3.3,1.1-5.7,1.1-5.9c0-0.3,0.3-0.6,0.6-0.6l49.7-3.4c0.3,0,0.5,0.1,0.6,0.3c6.1,9.3,10.4,31.2,10.6,40&#10;&#9;&#9;c0.3,8.2,9.1,44.2,9.2,44.5c0.1,0.3-0.1,0.6-0.3,0.8C217.8,336.4,203.7,340.3,189.3,340.2L189.3,340.2z M148,329.5&#10;&#9;&#9;c4.5,2.2,44.5,20.5,81-1.5c-1.1-4.6-8.9-36.4-9.1-44.3c-0.3-8.4-4.4-29.8-10.2-39l-48.7,3.4c-0.1,0.7-0.4,2.2-1,5.5&#10;&#9;&#9;C157.2,268.8,149.8,309.1,148,329.5L148,329.5z"/>
	<path class="st0_team-success-5-66" d="M237.5,125.3l3.3-9c0,0-1.6-3.6,0.2-6.2s2.9-4.9,4.2-4.1s8.4,4.5,7.3,8.8s-4.2,5-4.2,5&#10;&#9;&#9;c-1.5,4.1-3.3,8.1-5.5,11.9L237.5,125.3L237.5,125.3z"/>
	<path class="st1_team-success-5-66" d="M242.8,132.5c-0.2,0-0.4-0.1-0.6-0.3l-5.3-6.5c-0.2-0.2-0.2-0.5-0.1-0.7l3.2-8.7c-0.4-0.9-1.3-4.1,0.3-6.6&#10;&#9;&#9;l0.7-1.1c1.5-2.3,2.7-4.3,4.5-3.2l0.4,0.2c2.1,1.2,8.3,4.8,7.2,9.4c-1,3.8-3.3,5-4.3,5.4c-1.5,4-3.3,7.9-5.4,11.7&#10;&#9;&#9;C243.3,132.4,243.1,132.5,242.8,132.5L242.8,132.5L242.8,132.5z M238.3,125.2l4.3,5.3c1.9-3.5,3.6-7.1,4.9-10.8&#10;&#9;&#9;c0.1-0.3,0.3-0.4,0.6-0.5c0.1,0,2.6-0.6,3.6-4.4c0.9-3.5-4.7-6.7-6.5-7.8l-0.4-0.3c-0.5-0.3-1.5,1.2-2.5,2.8&#10;&#9;&#9;c-0.2,0.4-0.5,0.7-0.7,1.1c-1.5,2.3-0.1,5.5-0.1,5.5c0.1,0.2,0.1,0.4,0,0.5L238.3,125.2L238.3,125.2z"/>
	<path class="st0_team-success-5-66" d="M244.4,107.9c2,1,3.8,2.5,5,4.5c0.2,0.2,0.3,0.5,0.2,0.7c-0.1,0.3-0.4,0.5-0.7,0.6c-0.4,0.2-0.8,0.4-1.3,0.3&#10;&#9;&#9;c-0.3-0.1-0.6-0.2-0.8-0.3c-1-0.6-1.9-1.3-2.8-2.2c0.8,0.6,1.1,1.7,0.9,2.7c-0.3,1-1,1.7-2,1.9"/>
	<path class="st1_team-success-5-66" d="M242.9,116.8c-0.3,0-0.6-0.2-0.7-0.6c-0.1-0.4,0.2-0.8,0.6-0.8c0,0,0,0,0,0c1-0.2,1.7-1.2,1.5-2.2&#10;&#9;&#9;c-0.1-0.3-0.2-0.6-0.4-0.8l-0.3-0.3c-0.3-0.3-0.3-0.7,0-1c0.3-0.3,0.7-0.3,1-0.1c0.2,0.1,0.3,0.3,0.4,0.4c0.7,0.7,1.4,1.2,2.3,1.7&#10;&#9;&#9;c0.2,0.1,0.4,0.2,0.6,0.2c0.3,0,0.6-0.1,0.9-0.3c0.1,0,0.2-0.1,0.3-0.2c0-0.1-0.1-0.1-0.1-0.2c-1.2-1.8-2.8-3.3-4.7-4.2&#10;&#9;&#9;c-0.4-0.2-0.5-0.6-0.3-1s0.6-0.5,1-0.3l0,0c2.1,1.1,4,2.7,5.3,4.7c0.3,0.4,0.4,0.8,0.3,1.3c-0.2,0.5-0.6,1-1.1,1.1&#10;&#9;&#9;c-0.5,0.3-1.1,0.4-1.7,0.4c-0.4-0.1-0.8-0.2-1.1-0.4c-0.2-0.2-0.5-0.3-0.7-0.5c0,0.2,0,0.3-0.1,0.5c-0.3,1.2-1.3,2.2-2.6,2.4&#10;&#9;&#9;L242.9,116.8L242.9,116.8z"/>
	<path class="st0_team-success-5-66" d="M118.1,238.8c0,0-1.5,11.7-1.5,11.8c-0.1,0.7,1.5,3,1.7,3.9c0.6,2.5,0.6,5.4,1,8c0.1,0.4,0.1,0.9-0.2,1.1&#10;&#9;&#9;s-1,0-1.3-0.3l-3.3-2.7c-1.6,2.9-3,5.8-4.2,8.9c-2.7,0.7-5.4-1.2-7.3-3.2c-0.2-0.2-0.4-0.5-0.6-0.7c-0.1-0.3-0.2-0.7-0.2-1&#10;&#9;&#9;c-0.5-4.7-1.1-13.8,4.5-16.2c0.6-5.4,1.7-10.7,3.3-15.9L118.1,238.8L118.1,238.8z"/>
	<path class="st1_team-success-5-66" d="M109.1,270.3c-2.2,0-4.5-1.2-6.7-3.5c-0.3-0.3-0.5-0.6-0.7-0.9c-0.2-0.4-0.3-0.8-0.3-1.2&#10;&#9;&#9;c-0.4-3.4-1.5-13.7,4.5-16.8c0.7-5.3,1.8-10.5,3.3-15.6c0.1-0.2,0.2-0.4,0.5-0.5c0.2-0.1,0.5,0,0.7,0.1l8.2,6.3&#10;&#9;&#9;c0.2,0.2,0.3,0.4,0.3,0.7c0,0-1.5,11.7-1.5,11.8c0.2,0.6,0.5,1.2,0.8,1.8c0.4,0.6,0.6,1.2,0.8,1.9c0.3,1.7,0.6,3.4,0.7,5.1&#10;&#9;&#9;c0.1,1,0.2,2,0.3,2.9c0.2,0.7,0,1.3-0.5,1.8c-0.3,0.3-1.1,0.5-2.2-0.4l-2.6-2.1c-1.4,2.6-2.6,5.3-3.7,8c-0.1,0.2-0.3,0.4-0.5,0.4&#10;&#9;&#9;C110,270.3,109.5,270.3,109.1,270.3L109.1,270.3z M110.3,233.7c-1.4,4.8-2.4,9.7-3,14.7c0,0.3-0.2,0.5-0.4,0.6&#10;&#9;&#9;c-3.7,1.6-5,6.7-4.1,15.5c0,0.3,0.1,0.5,0.2,0.8c0.1,0.2,0.3,0.4,0.4,0.5c1.3,1.3,3.7,3.4,6.3,3c1.2-3,2.5-5.8,4.1-8.6&#10;&#9;&#9;c0.1-0.2,0.3-0.3,0.5-0.4c0.2,0,0.4,0,0.6,0.1l3.3,2.7c0.1,0.1,0.3,0.2,0.5,0.3c0-0.1,0-0.3,0-0.4c-0.1-1-0.2-2-0.3-3&#10;&#9;&#9;c-0.1-1.7-0.3-3.3-0.7-4.9c-0.2-0.5-0.4-1-0.7-1.5c-0.7-1.2-1.1-2-1-2.7c0-0.1,1.2-9.3,1.5-11.4L110.3,233.7L110.3,233.7z"/>
	<path class="st2_team-success-5-66 targetColor" d="M176.1,174.6c-0.3-0.1-0.6-0.3-0.9-0.3c-2.4-0.5-6.1,2.4-8.1,3.8c-2.1,1.6-3.6,3.9-4.4,6.4&#10;&#9;&#9;c-1,3.4-1.7,6.8-2,10.3c-2.2,18.2-2.2,37-3.3,55.3c0,0,15.3,11,28,9.3s28.7-9.1,28.7-9.1s-4.5-50.9-4.7-58.5&#10;&#9;&#9;c0,0,8.1-10.8,17.7-24.2s18.6-39.4,18.6-39.4l-8.4-5.7c0,0-28.7,45.6-33.7,49.9c-4.8,4.1-11.8,5.3-17.9,4.9c-2.2-0.1-4.3-0.4-6.5-1&#10;&#9;&#9;C178.2,175.7,177.1,175.2,176.1,174.6L176.1,174.6z" style="fill: rgb(13, 110, 253);"/>
	<path class="st0_team-success-5-66" d="M168.8,169.2c-1-0.6-1.8-1.5-2.2-2.6c-0.1-0.8,0.1-1.7,0.4-2.4c2.8-8.4,2.2-18,7-25.5c0.6-1,1.4-1.9,2.4-2.5&#10;&#9;&#9;c1-0.6,2.3-0.6,3.3,0c4.2-7.1,14.5-2,17.4,3.7c3.1,6.1,4.9,13,7.2,19.5c0.9,1.9,1.3,4,1.2,6.1c-0.2,2.1-1.7,4.2-3.8,4.4l-1.1-1.9&#10;&#9;&#9;c0.5,0.6,0.4,1.5-0.2,2.1c-0.6,0.5-1.3,0.8-2.1,0.9c-7.4,1.9-15.4,3.4-22.6,0.8c-1.1-0.4-2.4-1.4-2-2.5&#10;&#9;&#9;C173.1,171.3,170.6,170.6,168.8,169.2L168.8,169.2z"/>
	<path class="st1_team-success-5-66" d="M184.2,173.8c-3,0-5.9-0.4-8.7-1.4c-0.9-0.3-1.6-0.8-2.2-1.5c-0.1,0.1-0.2,0.1-0.4,0.2c-1.8,0.6-4-0.9-4.6-1.3&#10;&#9;&#9;l0,0c-0.5-0.4-2.3-1.7-2.5-3c-0.1-0.9,0-1.8,0.4-2.7c1-3.3,1.8-6.7,2.3-10.1c0.9-5.4,1.9-10.9,4.8-15.7c0.6-1.1,1.6-2.1,2.7-2.8&#10;&#9;&#9;c1-0.6,2.3-0.7,3.4-0.3c1.5-2.2,4-3.4,6.6-3.2c4.4,0.1,9.7,3.5,11.7,7.6c2.1,4.4,3.9,9,5.3,13.7c0.6,2,1.3,3.9,2,5.8&#10;&#9;&#9;c0.9,2,1.3,4.3,1.2,6.5c-0.2,2.3-1.9,4.8-4.5,5.1c-0.3,0-0.5-0.1-0.7-0.3l-0.2,0.2c-0.7,0.6-1.5,1-2.4,1.1&#10;&#9;&#9;C193.9,173,189.1,173.7,184.2,173.8L184.2,173.8z M174.4,169.6c0,0.1,0,0.2,0,0.3c0.4,0.5,0.9,0.9,1.5,1.1c6.9,2.4,14.7,1,22.1-0.8&#10;&#9;&#9;c0.6-0.1,1.2-0.4,1.7-0.8c0.2-0.2,0.3-0.4,0.3-0.7v-0.1l-0.2-0.4c-0.2-0.3-0.1-0.8,0.2-1c0.3-0.2,0.7-0.1,0.9,0.1&#10;&#9;&#9;c0.2,0.2,0.4,0.5,0.5,0.7l0.5,0.9c1.5-0.6,2.6-2,2.7-3.7c0-2-0.3-4-1.2-5.8c-0.7-1.9-1.3-3.9-2-5.9c-1.4-4.6-3.1-9.2-5.2-13.5&#10;&#9;&#9;c-2.2-3.8-6-6.3-10.4-6.8c-2.3-0.1-4.6,1.1-5.7,3.1c-0.1,0.2-0.3,0.3-0.5,0.3c-0.2,0-0.4,0-0.6-0.1c-0.8-0.5-1.8-0.5-2.6,0&#10;&#9;&#9;c-0.9,0.6-1.6,1.4-2.1,2.3c-2.8,4.5-3.7,9.6-4.6,15.1c-0.5,3.4-1.3,6.9-2.3,10.2c-0.3,0.7-0.4,1.4-0.4,2.1c0.4,0.9,1.1,1.6,1.9,2.1&#10;&#9;&#9;l0,0c1.3,0.9,2.6,1.4,3.4,1.1c0.3-0.1,0.5-0.3,0.5-0.6V169c0.1-0.4,0.6-0.6,0.9-0.4c0.4,0.1,0.6,0.6,0.4,0.9&#10;&#9;&#9;C174.5,169.5,174.5,169.6,174.4,169.6L174.4,169.6z"/>
	<path class="st0_team-success-5-66" d="M188.4,189.5l-0.3,0.2c-0.7,0.6-1.7,0.7-2.6,0.3c-0.4-0.3-0.7-0.6-0.9-1c-3-4.3-5-8.8-4.1-14.1&#10;&#9;&#9;c0,0,0-0.1,0-0.1l-0.1-1.8l-0.4-5l0.1-0.7l0.1-1l0.4-5.5l11.6,0.1l0.4,6.8v0.1v0.3l0.3,4.3l0.1,2.4v0.1c0.2,4.3-1.3,9.1-3.2,12.9&#10;&#9;&#9;C189.4,188.3,188.9,189,188.4,189.5L188.4,189.5z"/>
	<path class="st1_team-success-5-66" d="M186.5,191c-0.5,0-1-0.1-1.4-0.4c-0.5-0.3-0.8-0.7-1.1-1.2c-2.5-3.6-5.2-8.5-4.2-14.6l-0.5-6.8l0.1-1.9&#10;&#9;&#9;l0.4-5.5c0-0.4,0.3-0.7,0.7-0.7l11.6,0.1c0.4,0,0.7,0.3,0.7,0.7l0.4,6.8v0.1l0.4,7c0.2,3.9-1,8.7-3.3,13.3&#10;&#9;&#9;c-0.4,0.8-0.9,1.5-1.5,2.1c-0.1,0.1-0.2,0.2-0.4,0.3C187.9,190.8,187.2,191,186.5,191L186.5,191z M181.2,161.4l-0.5,6.6l0.5,6.7&#10;&#9;&#9;c0,0.1,0,0.2,0,0.3c-0.7,4.4,0.5,8.5,4,13.6c0.2,0.3,0.4,0.6,0.7,0.8c0.6,0.3,1.3,0.2,1.8-0.2l0.2-0.2l0,0c0.5-0.5,0.9-1.1,1.2-1.7&#10;&#9;&#9;c2.2-4.4,3.4-8.9,3.2-12.5l-0.4-7.1v-0.1l-0.4-6L181.2,161.4L181.2,161.4z"/>
	<path class="st1_team-success-5-66" d="M180,167.9c0.9,1.6,2.2,2.9,3.8,3.9c2.5,1.6,6,3,9,2.5l-0.2-6.8c-2.2,0.3-4.5,0.3-6.7,0&#10;&#9;&#9;c-2-0.1-3.9-0.6-5.7-1.3L180,167.9L180,167.9z"/>
	<path class="st1_team-success-5-66" d="M191.4,175.1c-2.9-0.2-5.7-1.1-8.1-2.8c-1.7-1-3-2.4-4-4.1c-0.1-0.1-0.1-0.2-0.1-0.4l0.1-1.8&#10;&#9;&#9;c0-0.2,0.1-0.4,0.4-0.6c0.2-0.1,0.4-0.1,0.6,0c1.7,0.7,3.6,1.2,5.5,1.3c2.2,0.3,4.3,0.3,6.5,0c0.2,0,0.4,0,0.6,0.1&#10;&#9;&#9;c0.1,0.1,0.2,0.3,0.2,0.5l0.2,6.8c0,0.3-0.2,0.7-0.6,0.7C192.4,175,191.9,175.1,191.4,175.1L191.4,175.1z M180.7,167.7&#10;&#9;&#9;c0.9,1.4,2,2.6,3.4,3.4c2.3,1.6,5.1,2.5,7.9,2.5l-0.2-5.4c-2,0.2-4.1,0.2-6.1-0.1c-1.7-0.1-3.4-0.5-5-1L180.7,167.7L180.7,167.7z"/>
	<path class="st0_team-success-5-66" d="M185.9,169.1h1.2c5.6,0.1,10.2-4.4,10.3-10c0,0,0,0,0,0c-0.1-3.1-0.4-6.2-0.9-9.3c0,0-4.7-1.7-8.4-3.1&#10;&#9;&#9;c-6.2-2.3-7.9-5.7-7.9-5.7c-0.2,2.2-0.7,4.4-1.4,6.5c-0.8,1.5-1.7,2.9-2.8,4.2c0,0-0.2,5-0.2,7.1&#10;&#9;&#9;C175.7,164.4,180.2,169,185.9,169.1C185.9,169.1,185.9,169.1,185.9,169.1L185.9,169.1z"/>
	<path class="st1_team-success-5-66" d="M187.2,169.8h-1.3c-2.9,0-5.6-1.2-7.7-3.3c-2-2.1-3.1-4.8-3.1-7.7c0-2.1,0.2-7.1,0.2-7.1&#10;&#9;&#9;c0-0.1,0.1-0.3,0.1-0.4c1-1.3,1.9-2.7,2.7-4.1c0.7-2,1.2-4.1,1.4-6.3c0-0.4,0.4-0.7,0.8-0.7c0.3,0,0.5,0.2,0.6,0.4&#10;&#9;&#9;c0,0,1.7,3.1,7.5,5.3c3.7,1.4,8.4,3.1,8.4,3.1c0.2,0.1,0.4,0.3,0.5,0.6c0.5,3.1,0.8,6.3,0.9,9.4C198,165,193.1,169.8,187.2,169.8&#10;&#9;&#9;L187.2,169.8z M185.9,168.4h1.2c2.5,0.1,4.9-0.9,6.7-2.7c1.8-1.7,2.8-4.1,2.8-6.6c-0.1-2.9-0.4-5.9-0.8-8.8c-1.2-0.4-4.9-1.8-8-2.9&#10;&#9;&#9;c-2.7-0.9-5.1-2.5-7.1-4.5c-0.2,1.7-0.7,3.3-1.3,4.9c-0.8,1.5-1.7,2.9-2.7,4.2c0,1-0.2,5-0.2,6.9&#10;&#9;&#9;C176.5,164,180.6,168.3,185.9,168.4C185.9,168.4,185.9,168.4,185.9,168.4L185.9,168.4L185.9,168.4z"/>
	<path class="st1_team-success-5-66" d="M186.9,158.3c-0.6,0-1.2,0-1.8-0.1c-0.4-0.1-0.7-0.4-0.6-0.8s0.4-0.7,0.8-0.6c0.9,0.1,1.7,0.1,2.6,0.1&#10;&#9;&#9;c0.1-0.7-0.5-3.3-1.5-5.7c-0.1-0.4,0-0.8,0.4-0.9c0.4-0.1,0.8,0,0.9,0.4c0.7,1.7,2.1,5.8,1.4,7.1c-0.2,0.3-0.5,0.5-0.9,0.6&#10;&#9;&#9;C187.8,158.3,187.4,158.3,186.9,158.3L186.9,158.3z"/>
	
		<ellipse transform="matrix(1.099531e-02 -0.9999 0.9999 1.099531e-02 27.3513 332.8111)" class="st1_team-success-5-66" cx="181.9" cy="152.6" rx="1.7" ry="0.7"/>
	
		<ellipse transform="matrix(1.099531e-02 -0.9999 0.9999 1.099531e-02 36.7332 341.8529)" class="st1_team-success-5-66" cx="191.2" cy="152.4" rx="1.7" ry="0.7"/>
	<path class="st0_team-success-5-66" d="M198.8,177.5c0,2.8,0.2,8.5-5.8,19.1l-5.9-6.4c1.5-2.9,5.4-4.7,5.7-14.8c0-0.2,0-0.5,0-0.7&#10;&#9;&#9;c0.1,0,0.1-0.1,0.2-0.1c2.2-1,5.5,0.7,5.8,1.9C198.7,176.8,198.7,177.1,198.8,177.5L198.8,177.5z"/>
	<path class="st1_team-success-5-66" d="M192.9,197.3c-0.2,0-0.4-0.1-0.5-0.2l-5.9-6.4c-0.2-0.2-0.3-0.6-0.1-0.8c0.4-0.7,0.9-1.5,1.5-2.1&#10;&#9;&#9;c1.7-2.2,3.9-4.9,4.1-12.3c0-0.3,0-0.5,0-0.7c0-0.3,0.1-0.5,0.4-0.6c0.1-0.1,0.2-0.1,0.4-0.2c1.5-0.5,3.2-0.4,4.6,0.4&#10;&#9;&#9;c0.6,0.3,1.9,1,2.1,2c0.1,0.4,0.1,0.8,0.1,1.2v0.4c0,3.1-0.1,8.8-5.9,19C193.4,197.1,193.2,197.2,192.9,197.3L192.9,197.3&#10;&#9;&#9;L192.9,197.3z M187.9,190.1l4.9,5.3c5.2-9.4,5.2-14.6,5.2-17.5v-0.4l0,0c0-0.3,0-0.6,0-0.9c-0.3-0.5-0.8-0.9-1.4-1.1&#10;&#9;&#9;c-1-0.5-2.1-0.7-3.2-0.4c0,0.1,0,0.2,0,0.3c-0.2,7.9-2.7,11-4.4,13.2C188.6,189.1,188.2,189.6,187.9,190.1L187.9,190.1z"/>
	<path class="st0_team-success-5-66" d="M186.5,190.2l-6.5,6.4c-7.1-4.9-5.7-19.3-5.5-20.1c0.3-0.6,0.8-1.1,1.4-1.4c0.5-0.3,0.5-0.3,0,0&#10;&#9;&#9;c1.4-0.9,3.1-1,4.6-0.4v0.1C180.8,185.3,184.9,187.4,186.5,190.2L186.5,190.2z"/>
	<path class="st1_team-success-5-66" d="M180,197.3c-0.1,0-0.3,0-0.4-0.1c-7.9-5.4-5.8-20.8-5.8-20.9c0.3-0.8,0.9-1.4,1.7-1.8l0,0l0,0&#10;&#9;&#9;c1.6-1,3.6-1.2,5.3-0.4c0.2,0.1,0.4,0.4,0.4,0.6v0.2c0.2,7.7,2.5,10.6,4.4,12.9c0.6,0.7,1.1,1.4,1.5,2.2c0.2,0.3,0.1,0.6-0.1,0.9&#10;&#9;&#9;l-6.5,6.4C180.3,197.3,180.2,197.4,180,197.3L180,197.3z M176.2,175.8c-0.4,0.2-0.8,0.5-1,0.9c-0.3,1.3-1.3,14.1,4.7,19l5.6-5.5&#10;&#9;&#9;c-0.3-0.5-0.7-1-1.1-1.5c-1.9-2.3-4.4-5.5-4.7-13.5C178.6,174.9,177.3,175.1,176.2,175.8L176.2,175.8L176.2,175.8z"/>
	<path class="st1_team-success-5-66" d="M188.6,160.1h-3.4c0,0-0.4,6.1,1.7,5.4C188.6,165,189.1,162.4,188.6,160.1z"/>
	<path class="st2_team-success-5-66 targetColor" d="M171.1,175.4c-0.6-1.8-41.8,20.8-49.2,25.8s-17.1,42.1-17.1,42.1l15.6,0.8c0,0,12.1-29.1,17.6-33.9&#10;&#9;&#9;s28.6-13.5,28.6-13.5L171.1,175.4L171.1,175.4z" style="fill: rgb(13, 110, 253);"/>
</g>
<g id="Character_Male_team-success-5-66">
	<path class="st0_team-success-5-66" d="M386.6,115.2c0,0,1-3,0.8-4.4s-1.3-4-0.8-5.7s2.3-6.6,4.4-6.4s8.2,1.8,8.9,4.9s-5.7,19-5.7,19L386.6,115.2z"/>
	<path class="st1_team-success-5-66" d="M394.2,123.2c-0.2,0-0.4-0.1-0.5-0.2l-7.6-7.3c-0.2-0.2-0.2-0.5-0.1-0.7c0.5-1.3,0.7-2.6,0.8-4&#10;&#9;&#9;c-0.1-0.4-0.2-0.8-0.3-1.3c-0.4-1.5-0.9-3.3-0.5-4.7c0.5-1.7,2.4-7.1,5.1-6.9c1.8,0.1,8.8,1.8,9.5,5.4c0.7,3.2-5,17.7-5.7,19.3&#10;&#9;&#9;c-0.1,0.2-0.3,0.4-0.5,0.4L394.2,123.2L394.2,123.2z M387.4,115l6.5,6.3c2.5-6.3,5.7-15.6,5.2-17.6c-0.5-2.5-6.1-4.2-8.2-4.3&#10;&#9;&#9;c-1.1,0-2.8,3-3.7,6c-0.3,1,0.1,2.7,0.5,4c0.1,0.5,0.3,1,0.3,1.4C388.1,112.2,387.9,113.7,387.4,115L387.4,115z"/>
	<polygon class="st0_team-success-5-66" points="377.1,96.8 412.3,114.8 424.9,90.3 389.4,73.3 &#9;"/>
	<path class="st1_team-success-5-66" d="M412.3,115.5c-0.1,0-0.2,0-0.3-0.1l-35.2-18c-0.2-0.1-0.3-0.2-0.4-0.4c-0.1-0.2,0-0.4,0-0.6L388.8,73&#10;&#9;&#9;c0.2-0.3,0.6-0.5,1-0.3l35.5,17c0.2,0.1,0.3,0.2,0.4,0.4c0.1,0.2,0.1,0.4,0,0.6L413,115.1C412.9,115.4,412.6,115.5,412.3,115.5&#10;&#9;&#9;L412.3,115.5z M378.1,96.5l33.9,17.3l11.9-23.2l-34.2-16.3L378.1,96.5z"/>
	<path class="st0_team-success-5-66" d="M283.4,115.2c0,0-1-3-0.8-4.4s1.3-4,0.8-5.7s-2.3-6.6-4.4-6.4s-8.2,1.8-8.9,4.9s5.7,19,5.7,19L283.4,115.2z"/>
	<path class="st1_team-success-5-66" d="M275.8,123.2c0,0-0.1,0-0.1,0c-0.2,0-0.4-0.2-0.5-0.4c-0.6-1.6-6.4-16.2-5.7-19.3c0.8-3.7,7.7-5.3,9.5-5.4&#10;&#9;&#9;c2.7-0.2,4.6,5.3,5.1,6.9c0.4,1.4,0,3.3-0.5,4.7c-0.1,0.5-0.2,0.9-0.3,1.3c0,1.4,0.3,2.7,0.8,4c0.1,0.3,0,0.5-0.2,0.7l-7.6,7.3&#10;&#9;&#9;C276.2,123.1,276,123.2,275.8,123.2L275.8,123.2z M279.1,99.4L279.1,99.4c-2.2,0.1-7.7,1.8-8.2,4.3c-0.4,2,2.8,11.3,5.2,17.6&#10;&#9;&#9;l6.5-6.3c-0.5-1.4-0.7-2.8-0.7-4.3c0.1-0.4,0.2-0.9,0.3-1.4c0.4-1.3,0.8-2.9,0.5-4C281.9,102.3,280.3,99.3,279.1,99.4L279.1,99.4z"/>
	<path class="st1_team-success-5-66" d="M372.5,407.4c0.1,0.4-1.2,12.2,0,14.2s12.5,7.5,17.4,3.9s1.2-6.7,0-8.4s-6.1-12.3-6.1-12.3L372.5,407.4z"/>
	<path class="st1_team-success-5-66" d="M385.6,427.4c-1.1,0-2.1-0.1-3.2-0.3c-4.5-0.9-9.5-3.5-10.5-5.1c-0.8-1.4-0.7-5.7-0.2-12.4&#10;&#9;&#9;c0.1-0.9,0.1-1.9,0.1-2.1c-0.1-0.2,0-0.4,0.1-0.5c0.1-0.2,0.3-0.3,0.5-0.3l11.3-2.8c0.3-0.1,0.7,0.1,0.8,0.4c0,0.1,4.9,10.5,6,12.2&#10;&#9;&#9;c0.2,0.2,0.4,0.5,0.6,0.8c0.9,1.2,2.2,2.8,1.9,4.7c-0.3,1.6-1.3,3-2.7,3.8C388.9,426.9,387.2,427.4,385.6,427.4L385.6,427.4z&#10;&#9;&#9; M373.2,408c0,0.4,0,0.9-0.1,1.7c-0.2,2.8-0.7,10.3,0,11.5c0.6,1,5,3.5,9.5,4.4c2.1,0.4,5,0.6,6.9-0.7c1.1-0.6,1.8-1.7,2.1-2.9&#10;&#9;&#9;c0.2-1.4-0.8-2.7-1.6-3.7c-0.3-0.3-0.5-0.6-0.7-0.9c-1-1.6-4.9-9.7-5.9-11.9L373.2,408z"/>
	<path class="st1_team-success-5-66" d="M286.7,402.2c0,0-9.7,16-8.1,20.3s15.7,0.6,18.4-2.5s2.9-21.9,2.9-21.9L286.7,402.2L286.7,402.2z"/>
	<path class="st1_team-success-5-66" d="M283.3,425.1c-0.7,0-1.4-0.1-2.1-0.2c-1.7-0.3-2.8-1.1-3.2-2.2c-1.6-4.4,7.2-19.2,8.2-20.9&#10;&#9;&#9;c0.1-0.1,0.2-0.3,0.4-0.3l13.1-4.1c0.2-0.1,0.4,0,0.6,0.1c0.2,0.1,0.3,0.3,0.3,0.6c0,2-0.3,19.1-3.1,22.3&#10;&#9;&#9;C295.5,422.7,288.4,425.1,283.3,425.1L283.3,425.1z M287.2,402.8c-3.8,6.4-9,16.6-7.9,19.5c0.2,0.6,1,1.1,2.1,1.3&#10;&#9;&#9;c4.4,0.8,13.1-1.8,15-4s2.6-14.7,2.7-20.4L287.2,402.8L287.2,402.8z"/>
	<path class="st1_team-success-5-66" d="M312.6,246.2c0,0-13.3,75.8-17.6,94.4s-12,64.2-12,64.2s6.2,4.2,16.2,1.5l37.3-115.6l35.1,118.7l15.1-3.5&#10;&#9;&#9;l-24.8-154.4L312.6,246.2L312.6,246.2z"/>
	<path class="st1_team-success-5-66" d="M371.6,410.1c-0.3,0-0.6-0.2-0.7-0.5L336.5,293L300,406.5c-0.1,0.2-0.3,0.4-0.5,0.5&#10;&#9;&#9;c-10.2,2.8-16.6-1.5-16.8-1.6c-0.2-0.2-0.3-0.4-0.3-0.7c0.1-0.5,7.8-45.9,12-64.2s17.4-93.6,17.6-94.4c0.1-0.4,0.4-0.6,0.8-0.6&#10;&#9;&#9;l49.2,5.3c0.3,0,0.6,0.3,0.6,0.6l24.8,154.4c0.1,0.4-0.2,0.7-0.5,0.8l-15.1,3.5L371.6,410.1L371.6,410.1z M336.5,289.9L336.5,289.9&#10;&#9;&#9;c0.3,0,0.6,0.2,0.7,0.5l34.9,118.1l13.8-3.2l-24.6-153.3l-48.1-5.2c-1.3,7.4-13.5,76.3-17.5,93.8s-11.1,58.8-11.9,63.7&#10;&#9;&#9;c1.4,0.8,6.9,3.4,14.9,1.3l37.2-115.3C336,290.1,336.2,289.9,336.5,289.9L336.5,289.9z"/>
	<path class="st2_team-success-5-66 targetColor" d="M397.2,116.6c-3.6,13.7-27.1,73.7-28.9,77.8s-0.3,59.4-0.3,59.4c-15,9.5-57.8,5.4-58.5,3.6s0.3-39.7-1-46.9&#10;&#9;&#9;s-36.1-92.6-36.1-92.6l12.4-4.1l12.9,27.6c0,0,15.2,25.7,18.8,28.3c1.3,0.8,2.7,1.3,4.1,1.5c3.6,0.6,7.2,0.8,10.9,0.7&#10;&#9;&#9;c7.2,2.1,16-0.7,20.9-3.1c0.9-0.4,1.7-0.9,2.6-1.5c3.4-2.3,30.9-53.6,30.9-53.6L397.2,116.6L397.2,116.6z" style="fill: rgb(13, 110, 253);"/>
	<path class="st1_team-success-5-66" d="M352.4,168.9l-15.5,60.4l-16.2-58.1c3.6,0.6,7.2,0.8,10.9,0.7C338.8,174,347.6,171.2,352.4,168.9L352.4,168.9z&#10;&#9;&#9;"/>
	<path class="st1_team-success-5-66" d="M336.9,230c-0.3,0-0.6-0.2-0.7-0.5L320,171.4c-0.1-0.2,0-0.5,0.2-0.7c0.2-0.2,0.4-0.3,0.6-0.2&#10;&#9;&#9;c3.5,0.6,7.1,0.8,10.7,0.7c0.1,0,0.1,0,0.2,0c6.5,1.9,14.8-0.3,20.4-3.1c0.2-0.1,0.5-0.1,0.8,0.1c0.2,0.2,0.3,0.5,0.2,0.7&#10;&#9;&#9;l-15.5,60.4C337.5,229.7,337.2,230,336.9,230L336.9,230L336.9,230z M321.7,172.1l15.2,54.5l14.5-56.4c-5.7,2.5-13.5,4.3-19.9,2.5&#10;&#9;&#9;C328.2,172.7,324.9,172.6,321.7,172.1z"/>
	<path class="st0_team-success-5-66" d="M349,151c0.2-0.5,0.3-0.9,0.4-1.4c2.5-9.1-1.2-20.7-11.8-21.4c-5-0.2-9.6,2.5-11.9,6.8&#10;&#9;&#9;c-3.1,5.3-2.2,12.1-1.6,18c0,0.4,0.1,0.8,0.3,1.1c0.6,0.7,1.8,0.2,2.6,0.2c1.1,0,2.3,0.2,3.5,0.2c2,0.1,4,0.2,5.9,0.1&#10;&#9;&#9;c2.9,0.1,5.7,0,8.6-0.2c1.2-0.2,2-0.2,2.8-1.2C348.3,152.6,348.8,151.8,349,151L349,151z"/>
	<path class="st1_team-success-5-66" d="M340.7,155.4c-0.6,0-1.2,0-1.8,0c-0.8,0-1.7,0-2.5,0c-1.7,0-3.6,0-6-0.1c-0.5,0-0.9-0.1-1.4-0.1&#10;&#9;&#9;c-0.7-0.1-1.4-0.2-2.1-0.2c-0.2,0-0.4,0-0.6,0.1c-1.1,0.5-2.3,0-2.8-1c-0.1-0.3-0.2-0.6-0.2-1l-0.1-0.8c-0.6-5.8-1.2-12.3,1.8-17.6&#10;&#9;&#9;c2.5-4.6,7.4-7.4,12.6-7.2c4,0.2,7.7,2.2,10,5.5c3.1,4.3,4,10.9,2.5,16.8c-0.1,0.5-0.3,1-0.5,1.5l0,0c-0.3,0.9-0.8,1.7-1.4,2.5&#10;&#9;&#9;c-0.7,0.8-1.8,1.3-2.9,1.4l-0.4,0.1C343.6,155.3,342.1,155.4,340.7,155.4L340.7,155.4z M337.2,154c0.6,0,1.2,0,1.8,0&#10;&#9;&#9;c2,0.1,4,0,5.9-0.2l0.4-0.1c0.9-0.1,1.4-0.2,2-0.9c0.5-0.6,0.9-1.3,1.1-2.1l0,0c0.2-0.4,0.3-0.9,0.4-1.4c1.5-5.5,0.6-11.6-2.2-15.6&#10;&#9;&#9;c-2.1-3-5.4-4.8-9-5c-4.7-0.2-9.1,2.3-11.3,6.5c-2.8,4.9-2.2,11.2-1.6,16.8l0.1,0.8c0,0.2,0.1,0.5,0.2,0.7c0.2,0.2,0.6,0.2,1.2,0.1&#10;&#9;&#9;c0.3,0,0.5-0.1,0.8-0.1c0.7,0,1.5,0,2.2,0.1c0.4,0,0.9,0.1,1.3,0.1c2.3,0.1,4.2,0.2,5.9,0.1L337.2,154L337.2,154z"/>
	<path class="st0_team-success-5-66" d="M328.1,152.1c-0.6-4.5-8-5.9-7.8-0.6c0,1.8,0.6,3.6,1.8,5c1.2,1.4,3.2,1.9,5,1.3"/>
	<path class="st1_team-success-5-66" d="M325.7,158.9c-1.5,0-3-0.7-4-1.8c-1.3-1.5-2-3.5-2-5.5c-0.1-2.8,1.7-4,3.4-4.1c2.8-0.2,5.3,1.8,5.8,4.6&#10;&#9;&#9;c0,0.4-0.2,0.7-0.6,0.8c0,0,0,0,0,0c-0.4,0-0.7-0.2-0.8-0.6c0,0,0,0,0,0c-0.4-2.1-2.2-3.5-4.3-3.4c-0.8,0.1-2.2,0.5-2.1,2.7&#10;&#9;&#9;c0,1.7,0.6,3.3,1.6,4.6c1,1.2,2.7,1.7,4.2,1.2c0.3-0.2,0.8,0,0.9,0.3c0.2,0.3,0,0.8-0.3,0.9c0,0-0.1,0-0.1,0&#10;&#9;&#9;C326.9,158.8,326.3,158.9,325.7,158.9L325.7,158.9z"/>
	<path class="st0_team-success-5-66" d="M344.3,152.1c0.6-4.5,8-5.9,7.8-0.6c0,1.8-0.6,3.6-1.8,5c-1.2,1.4-3.2,2-5,1.3"/>
	<path class="st1_team-success-5-66" d="M346.7,158.9c-0.6,0-1.1-0.1-1.7-0.3c-0.3-0.2-0.5-0.6-0.3-0.9c0.2-0.3,0.5-0.4,0.8-0.3c1.5,0.5,3.1,0,4.2-1.2&#10;&#9;&#9;c1.1-1.3,1.6-2.9,1.6-4.6c0.1-2.2-1.3-2.6-2.1-2.7c-2.1-0.1-3.9,1.3-4.3,3.4c-0.1,0.4-0.4,0.7-0.8,0.6c-0.4,0-0.7-0.4-0.6-0.8&#10;&#9;&#9;c0,0,0,0,0,0c0.4-2.8,3-4.8,5.8-4.6c1.7,0.1,3.5,1.3,3.4,4.1c0,2-0.7,3.9-2,5.5C349.7,158.2,348.2,158.8,346.7,158.9L346.7,158.9z"/>
	<path class="st0_team-success-5-66" d="M327.6,174.5c2.9,1.3,6.1,1.9,9.3,1.9c5.9,0.2,6.8-1.4,6.8-1.4l-0.1-3.1l-0.3-7.3l-0.3-6.8l-13.4-0.5l-0.6,5.6&#10;&#9;&#9;l-0.2,1.8L327.6,174.5L327.6,174.5z"/>
	<path class="st1_team-success-5-66" d="M337.9,177.2c-0.3,0-0.7,0-1,0c-3.3,0-6.6-0.7-9.6-2c-0.3-0.1-0.4-0.4-0.4-0.7l2-17.2c0-0.4,0.4-0.6,0.7-0.6&#10;&#9;&#9;l13.4,0.5c0.4,0,0.7,0.3,0.7,0.7l0.7,17.2c0,0.1,0,0.3-0.1,0.4C344.1,175.7,343,177.2,337.9,177.2z M328.3,174.1&#10;&#9;&#9;c2.7,1.1,5.6,1.6,8.6,1.7c4.2,0.1,5.7-0.6,6.1-1l-0.7-16.3l-12.1-0.4L328.3,174.1z"/>
	<path class="st1_team-success-5-66" d="M328.7,164.7c1.1,1.7,2.5,3,4.3,4c2.8,1.7,7.1,3.6,10.6,3.2l-0.3-7.3c-2.6,0.2-5.2,0.2-7.7-0.2&#10;&#9;&#9;c-2.3-0.2-4.5-0.7-6.6-1.5L328.7,164.7L328.7,164.7z"/>
	<path class="st1_team-success-5-66" d="M342.6,172.7c-3.7,0-7.8-2.1-10-3.4c-1.8-1-3.4-2.5-4.5-4.3c-0.1-0.1-0.1-0.3-0.1-0.4l0.2-1.8&#10;&#9;&#9;c0-0.2,0.2-0.4,0.4-0.5c0.2-0.1,0.4-0.1,0.6,0c2,0.8,4.2,1.3,6.4,1.5c2.5,0.4,5,0.4,7.6,0.2c0.2,0,0.4,0,0.5,0.2&#10;&#9;&#9;c0.1,0.1,0.2,0.3,0.2,0.5l0.3,7.3c0,0.4-0.3,0.7-0.6,0.7C343.3,172.7,342.9,172.7,342.6,172.7L342.6,172.7z M329.4,164.5&#10;&#9;&#9;c1,1.5,2.3,2.7,3.9,3.6c1.7,1,5.9,3.3,9.5,3.2l-0.3-5.9c-2.4,0.2-4.8,0.1-7.1-0.3c-2-0.2-4-0.6-5.9-1.2L329.4,164.5z"/>
	<path class="st0_team-success-5-66" d="M347.9,139.9l-0.6,16.3c0,0.7-0.1,1.4-0.3,2.1c-1.1,4.7-5.5,8-10.3,7.9l-1.2-0.1c-4.6-0.2-8.5-3.3-9.6-7.7&#10;&#9;&#9;c-0.2-0.9-0.3-1.9-0.3-2.9l0.6-16.2c0,0,2.5,3.3,9.8,3.3C340.1,142.5,344.2,141.7,347.9,139.9L347.9,139.9z"/>
	<path class="st1_team-success-5-66" d="M337.1,166.8h-0.4l-1.2-0.1c-4.9-0.2-9-3.5-10.2-8.2c-0.3-1-0.4-2.1-0.3-3.1l0.6-16.2c0-0.4,0.3-0.7,0.7-0.7&#10;&#9;&#9;c0.2,0,0.4,0.1,0.5,0.3c0,0,2.5,3.1,9.2,3c4,0,7.9-0.8,11.6-2.4c0.2-0.1,0.5-0.1,0.7,0c0.2,0.1,0.3,0.4,0.3,0.6l-0.6,16.3&#10;&#9;&#9;c0,0.7-0.1,1.5-0.3,2.2C346.6,163.3,342.2,166.8,337.1,166.8L337.1,166.8z M326.9,140.7l-0.5,14.8c0,0.9,0.1,1.8,0.3,2.7&#10;&#9;&#9;c1.1,4.1,4.7,7,8.9,7.2h1.2c4.5,0.1,8.5-2.9,9.6-7.3c0.2-0.6,0.2-1.3,0.3-1.9l0.5-15.1c-3.6,1.4-7.4,2.2-11.2,2.2&#10;&#9;&#9;C331.1,143.2,328.3,141.8,326.9,140.7L326.9,140.7z"/>
	<path class="st0_team-success-5-66" d="M337,147.6c0,0,3.4,7.4,1.9,7.6c-1.3-0.1-2.5-0.4-3.6-1"/>
	<path class="st1_team-success-5-66" d="M338.6,155.9c-1.3-0.1-2.5-0.5-3.7-1.1c-0.3-0.2-0.5-0.6-0.3-0.9c0,0,0,0,0,0c0.2-0.3,0.6-0.5,0.9-0.3&#10;&#9;&#9;c0.9,0.5,2,0.8,3,0.9c0-0.9-0.9-3.8-2.2-6.6c-0.2-0.4,0-0.8,0.4-0.9c0.4-0.2,0.8,0,0.9,0.4c1.1,2.5,2.9,6.8,2.1,8&#10;&#9;&#9;c-0.2,0.3-0.5,0.5-0.8,0.5L338.6,155.9L338.6,155.9z"/>
	<ellipse class="st1_team-success-5-66" cx="332.2" cy="146.5" rx="0.7" ry="1.6"/>
	<ellipse class="st1_team-success-5-66" cx="342.3" cy="146.5" rx="0.7" ry="1.6"/>
	<path class="st0_team-success-5-66" d="M277.9,100.1c-1.3,0.2-2.5,0.8-3.5,1.7c-1,0.8-2.2,1.8-2.1,3.1c0,0.1,0,0.3,0.1,0.4c0.1,0.1,0.3,0.1,0.4,0.1&#10;&#9;&#9;c1.9-0.1,3.7-0.8,5.3-1.8c-1.7,1.6-2.2,4-1.3,6.2l0.3,0.1"/>
	<path class="st1_team-success-5-66" d="M277,110.5h-0.2l-0.3-0.1c-0.2-0.1-0.4-0.2-0.5-0.4c-0.6-1.5-0.7-3.2-0.1-4.7c-1,0.4-2.1,0.6-3.2,0.7&#10;&#9;&#9;c-0.3,0-0.7,0-0.9-0.2c-0.2-0.2-0.4-0.5-0.4-0.9c0-1.7,1.4-2.9,2.4-3.7c1.1-0.9,2.5-1.5,3.9-1.8c0.4-0.1,0.7,0.2,0.8,0.6&#10;&#9;&#9;c0.1,0.4-0.2,0.7-0.6,0.8c0,0,0,0-0.1,0c-1.2,0.2-2.3,0.8-3.2,1.5c-1.1,0.8-1.7,1.5-1.8,2.2c1.7-0.2,3.3-0.7,4.7-1.7&#10;&#9;&#9;c0.3-0.2,0.7-0.1,0.9,0.2c0.3,0.3,0.2,0.7-0.1,1c-1.4,1.3-1.9,3.3-1.3,5.1c0.3,0.1,0.5,0.5,0.4,0.9&#10;&#9;&#9;C277.5,110.4,277.2,110.6,277,110.5L277,110.5z"/>
	<path class="st1_team-success-5-66" d="M338.2,158.6l-3.8-1.3c0,0-1.6,3.6,0.5,4.9S338.2,158.6,338.2,158.6z"/>
	<path class="st0_team-success-5-66" d="M388.6,103.4c0.3-0.5,0.8-0.7,1.4-0.8c1.1-0.3,2.2-0.3,3.2-0.2c1.1,0.1,2.2,0.5,3,1.3c0.2,0.1,0.3,0.3,0.4,0.6&#10;&#9;&#9;c0,0.4-0.2,0.7-0.6,0.9c-0.4,0.1-0.7,0.1-1.1,0.1l-2.8-0.2c0.8,0.6,1.5,1.3,2,2.2c0.5,0.9,0.5,2-0.1,2.8"/>
	<path class="st1_team-success-5-66" d="M394,110.7c-0.2,0-0.3-0.1-0.5-0.2c-0.3-0.3-0.3-0.7-0.1-1c0.4-0.6,0.4-1.4,0-2.1c-0.5-0.8-1.1-1.5-1.9-2&#10;&#9;&#9;c-0.3-0.2-0.3-0.7-0.1-1c0.1-0.2,0.4-0.3,0.6-0.3l2.8,0.2c0.3,0.1,0.5,0.1,0.8,0c0.1,0,0.1-0.1,0.1-0.1l0,0l-0.2-0.2&#10;&#9;&#9;c-0.7-0.6-1.6-1-2.6-1.1c-1-0.1-2,0-3,0.2c-0.3,0.1-0.8,0.2-1,0.5c-0.2,0.3-0.6,0.4-1,0.2c-0.3-0.2-0.4-0.6-0.2-1&#10;&#9;&#9;c0.4-0.6,1.1-1.1,1.9-1.2c1.1-0.3,2.3-0.4,3.5-0.2c1.2,0.1,2.4,0.6,3.3,1.5c0.3,0.3,0.5,0.6,0.6,1c0.1,0.7-0.3,1.4-1,1.7&#10;&#9;&#9;c-0.5,0.2-1,0.2-1.4,0.1l-0.8-0.1c0.3,0.3,0.5,0.6,0.7,1c0.7,1.1,0.6,2.6-0.2,3.6C394.4,110.6,394.2,110.7,394,110.7L394,110.7z"/>
	<path class="st1_team-success-5-66" d="M336.9,263.4c-0.4,0-0.7-0.3-0.7-0.7v0v-33.4c0-0.4,0.3-0.7,0.7-0.7c0.4,0,0.7,0.3,0.7,0.7v33.4&#10;&#9;&#9;C337.6,263.1,337.3,263.4,336.9,263.4z"/>
</g>
</svg>